G75*
%MOIN*%
%OFA0B0*%
%FSLAX24Y24*%
%IPPOS*%
%LPD*%
%AMOC8*
5,1,8,0,0,1.08239X$1,22.5*
%
%ADD10C,0.0000*%
%ADD11R,0.0512X0.0630*%
%ADD12R,0.0630X0.0512*%
%ADD13R,0.0551X0.0394*%
%ADD14R,0.0394X0.0394*%
%ADD15R,0.0591X0.0512*%
%ADD16R,0.0590X0.0790*%
%ADD17R,0.1500X0.0790*%
D10*
X001150Y002646D02*
X001150Y021646D01*
X020150Y021646D01*
X020150Y002646D01*
X001150Y002646D01*
D11*
X002381Y003621D03*
X003169Y003621D03*
X006256Y010646D03*
X007044Y010646D03*
G36*
X008269Y011159D02*
X008631Y011521D01*
X009075Y011077D01*
X008713Y010715D01*
X008269Y011159D01*
G37*
G36*
X008825Y011715D02*
X009187Y012077D01*
X009631Y011633D01*
X009269Y011271D01*
X008825Y011715D01*
G37*
G36*
X008819Y013521D02*
X009181Y013159D01*
X008737Y012715D01*
X008375Y013077D01*
X008819Y013521D01*
G37*
G36*
X008263Y014077D02*
X008625Y013715D01*
X008181Y013271D01*
X007819Y013633D01*
X008263Y014077D01*
G37*
G36*
X009038Y014852D02*
X009400Y014490D01*
X008956Y014046D01*
X008594Y014408D01*
X009038Y014852D01*
G37*
G36*
X009594Y014296D02*
X009956Y013934D01*
X009512Y013490D01*
X009150Y013852D01*
X009594Y014296D01*
G37*
G36*
X012250Y013802D02*
X011888Y013440D01*
X011444Y013884D01*
X011806Y014246D01*
X012250Y013802D01*
G37*
G36*
X012806Y014358D02*
X012444Y013996D01*
X012000Y014440D01*
X012362Y014802D01*
X012806Y014358D01*
G37*
G36*
X011856Y011096D02*
X011494Y011458D01*
X011938Y011902D01*
X012300Y011540D01*
X011856Y011096D01*
G37*
G36*
X012412Y010540D02*
X012050Y010902D01*
X012494Y011346D01*
X012856Y010984D01*
X012412Y010540D01*
G37*
X014256Y018646D03*
X015044Y018646D03*
D12*
X011150Y017540D03*
X011150Y016752D03*
X010150Y016752D03*
X010150Y017540D03*
X016650Y004540D03*
X016650Y003752D03*
D13*
X012083Y007272D03*
X012083Y008020D03*
X011217Y007646D03*
X010083Y007646D03*
X009217Y007272D03*
X009217Y008020D03*
X006583Y004646D03*
X005717Y004272D03*
X005717Y005020D03*
X004583Y005020D03*
X004583Y004272D03*
X003717Y004646D03*
D14*
X007650Y011752D03*
X007650Y012540D03*
X012650Y006540D03*
X012650Y005752D03*
D15*
X015150Y004520D03*
X015150Y003772D03*
D16*
X007560Y009386D03*
X006660Y009386D03*
X005760Y009386D03*
D17*
X006650Y006906D03*
M02*
