G75*
%MOIN*%
%OFA0B0*%
%FSLAX24Y24*%
%IPPOS*%
%LPD*%
%AMOC8*
5,1,8,0,0,1.08239X$1,22.5*
%
%ADD10C,0.0000*%
%ADD11R,0.0400X0.0120*%
%ADD12R,0.0120X0.0400*%
%ADD13C,0.0520*%
%ADD14C,0.0320*%
%ADD15OC8,0.0600*%
%ADD16OC8,0.0574*%
%ADD17C,0.1306*%
%ADD18R,0.0610X0.0512*%
%ADD19R,0.0512X0.0591*%
%ADD20R,0.0472X0.0472*%
%ADD21C,0.0100*%
%ADD22C,0.0356*%
D10*
X001150Y002646D02*
X001150Y021646D01*
X020150Y021646D01*
X020150Y002646D01*
X001150Y002646D01*
D11*
G36*
X011137Y010519D02*
X010856Y010800D01*
X010941Y010885D01*
X011222Y010604D01*
X011137Y010519D01*
G37*
G36*
X011278Y010660D02*
X010997Y010941D01*
X011082Y011026D01*
X011363Y010745D01*
X011278Y010660D01*
G37*
G36*
X011420Y010801D02*
X011139Y011082D01*
X011224Y011167D01*
X011505Y010886D01*
X011420Y010801D01*
G37*
G36*
X011561Y010943D02*
X011280Y011224D01*
X011365Y011309D01*
X011646Y011028D01*
X011561Y010943D01*
G37*
G36*
X011703Y011084D02*
X011422Y011365D01*
X011507Y011450D01*
X011788Y011169D01*
X011703Y011084D01*
G37*
G36*
X011844Y011226D02*
X011563Y011507D01*
X011648Y011592D01*
X011929Y011311D01*
X011844Y011226D01*
G37*
G36*
X011985Y011367D02*
X011704Y011648D01*
X011789Y011733D01*
X012070Y011452D01*
X011985Y011367D01*
G37*
G36*
X012127Y011508D02*
X011846Y011789D01*
X011931Y011874D01*
X012212Y011593D01*
X012127Y011508D01*
G37*
G36*
X012268Y011650D02*
X011987Y011931D01*
X012072Y012016D01*
X012353Y011735D01*
X012268Y011650D01*
G37*
G36*
X012410Y011791D02*
X012129Y012072D01*
X012214Y012157D01*
X012495Y011876D01*
X012410Y011791D01*
G37*
G36*
X012551Y011933D02*
X012270Y012214D01*
X012355Y012299D01*
X012636Y012018D01*
X012551Y011933D01*
G37*
G36*
X012693Y012074D02*
X012412Y012355D01*
X012497Y012440D01*
X012778Y012159D01*
X012693Y012074D01*
G37*
G36*
X010359Y014408D02*
X010078Y014689D01*
X010163Y014774D01*
X010444Y014493D01*
X010359Y014408D01*
G37*
G36*
X010218Y014266D02*
X009937Y014547D01*
X010022Y014632D01*
X010303Y014351D01*
X010218Y014266D01*
G37*
G36*
X010076Y014125D02*
X009795Y014406D01*
X009880Y014491D01*
X010161Y014210D01*
X010076Y014125D01*
G37*
G36*
X009935Y013983D02*
X009654Y014264D01*
X009739Y014349D01*
X010020Y014068D01*
X009935Y013983D01*
G37*
G36*
X009793Y013842D02*
X009512Y014123D01*
X009597Y014208D01*
X009878Y013927D01*
X009793Y013842D01*
G37*
G36*
X009652Y013700D02*
X009371Y013981D01*
X009456Y014066D01*
X009737Y013785D01*
X009652Y013700D01*
G37*
G36*
X009511Y013559D02*
X009230Y013840D01*
X009315Y013925D01*
X009596Y013644D01*
X009511Y013559D01*
G37*
G36*
X009369Y013418D02*
X009088Y013699D01*
X009173Y013784D01*
X009454Y013503D01*
X009369Y013418D01*
G37*
G36*
X009228Y013276D02*
X008947Y013557D01*
X009032Y013642D01*
X009313Y013361D01*
X009228Y013276D01*
G37*
G36*
X009086Y013135D02*
X008805Y013416D01*
X008890Y013501D01*
X009171Y013220D01*
X009086Y013135D01*
G37*
G36*
X008945Y012993D02*
X008664Y013274D01*
X008749Y013359D01*
X009030Y013078D01*
X008945Y012993D01*
G37*
G36*
X008803Y012852D02*
X008522Y013133D01*
X008607Y013218D01*
X008888Y012937D01*
X008803Y012852D01*
G37*
D12*
G36*
X008607Y012074D02*
X008522Y012159D01*
X008803Y012440D01*
X008888Y012355D01*
X008607Y012074D01*
G37*
G36*
X008749Y011933D02*
X008664Y012018D01*
X008945Y012299D01*
X009030Y012214D01*
X008749Y011933D01*
G37*
G36*
X008890Y011791D02*
X008805Y011876D01*
X009086Y012157D01*
X009171Y012072D01*
X008890Y011791D01*
G37*
G36*
X009032Y011650D02*
X008947Y011735D01*
X009228Y012016D01*
X009313Y011931D01*
X009032Y011650D01*
G37*
G36*
X009173Y011508D02*
X009088Y011593D01*
X009369Y011874D01*
X009454Y011789D01*
X009173Y011508D01*
G37*
G36*
X009315Y011367D02*
X009230Y011452D01*
X009511Y011733D01*
X009596Y011648D01*
X009315Y011367D01*
G37*
G36*
X009456Y011226D02*
X009371Y011311D01*
X009652Y011592D01*
X009737Y011507D01*
X009456Y011226D01*
G37*
G36*
X009597Y011084D02*
X009512Y011169D01*
X009793Y011450D01*
X009878Y011365D01*
X009597Y011084D01*
G37*
G36*
X009739Y010943D02*
X009654Y011028D01*
X009935Y011309D01*
X010020Y011224D01*
X009739Y010943D01*
G37*
G36*
X009880Y010801D02*
X009795Y010886D01*
X010076Y011167D01*
X010161Y011082D01*
X009880Y010801D01*
G37*
G36*
X010022Y010660D02*
X009937Y010745D01*
X010218Y011026D01*
X010303Y010941D01*
X010022Y010660D01*
G37*
G36*
X010163Y010519D02*
X010078Y010604D01*
X010359Y010885D01*
X010444Y010800D01*
X010163Y010519D01*
G37*
G36*
X012355Y012993D02*
X012270Y013078D01*
X012551Y013359D01*
X012636Y013274D01*
X012355Y012993D01*
G37*
G36*
X012497Y012852D02*
X012412Y012937D01*
X012693Y013218D01*
X012778Y013133D01*
X012497Y012852D01*
G37*
G36*
X012214Y013135D02*
X012129Y013220D01*
X012410Y013501D01*
X012495Y013416D01*
X012214Y013135D01*
G37*
G36*
X012072Y013276D02*
X011987Y013361D01*
X012268Y013642D01*
X012353Y013557D01*
X012072Y013276D01*
G37*
G36*
X011931Y013418D02*
X011846Y013503D01*
X012127Y013784D01*
X012212Y013699D01*
X011931Y013418D01*
G37*
G36*
X011789Y013559D02*
X011704Y013644D01*
X011985Y013925D01*
X012070Y013840D01*
X011789Y013559D01*
G37*
G36*
X011648Y013700D02*
X011563Y013785D01*
X011844Y014066D01*
X011929Y013981D01*
X011648Y013700D01*
G37*
G36*
X011507Y013842D02*
X011422Y013927D01*
X011703Y014208D01*
X011788Y014123D01*
X011507Y013842D01*
G37*
G36*
X011365Y013983D02*
X011280Y014068D01*
X011561Y014349D01*
X011646Y014264D01*
X011365Y013983D01*
G37*
G36*
X011224Y014125D02*
X011139Y014210D01*
X011420Y014491D01*
X011505Y014406D01*
X011224Y014125D01*
G37*
G36*
X011082Y014266D02*
X010997Y014351D01*
X011278Y014632D01*
X011363Y014547D01*
X011082Y014266D01*
G37*
G36*
X010941Y014408D02*
X010856Y014493D01*
X011137Y014774D01*
X011222Y014689D01*
X010941Y014408D01*
G37*
D13*
X011150Y015646D03*
X010150Y015646D03*
D14*
X011130Y016386D02*
X011130Y018606D01*
X011130Y016386D02*
X010170Y016386D01*
X010170Y018606D01*
X011130Y018606D01*
X011130Y016705D02*
X010170Y016705D01*
X010170Y017024D02*
X011130Y017024D01*
X011130Y017343D02*
X010170Y017343D01*
X010170Y017662D02*
X011130Y017662D01*
X011130Y017981D02*
X010170Y017981D01*
X010170Y018300D02*
X011130Y018300D01*
D15*
X011150Y019646D03*
X011150Y020646D03*
X010150Y020646D03*
X010150Y019646D03*
X009150Y019646D03*
X008150Y019646D03*
X008150Y020646D03*
X009150Y020646D03*
X007150Y020646D03*
X007150Y019646D03*
X006150Y019646D03*
X006150Y020646D03*
X004150Y017146D03*
X004150Y016146D03*
X004150Y015146D03*
X004150Y014146D03*
X004150Y013146D03*
X004150Y012146D03*
X004150Y011146D03*
X004150Y010146D03*
X004150Y009146D03*
X004150Y008146D03*
X004150Y007146D03*
X004150Y006146D03*
X003150Y006146D03*
X003150Y007146D03*
X003150Y008146D03*
X003150Y009146D03*
X003150Y010146D03*
X003150Y011146D03*
X003150Y012146D03*
X003150Y013146D03*
X003150Y014146D03*
X003150Y015146D03*
X003150Y016146D03*
X003150Y017146D03*
X012150Y019646D03*
X013150Y019646D03*
X013150Y020646D03*
X012150Y020646D03*
X014150Y020646D03*
X014150Y019646D03*
X015150Y019646D03*
X015150Y020646D03*
X017150Y017146D03*
X017150Y016146D03*
X017150Y015146D03*
X017150Y014146D03*
X017150Y013146D03*
X017150Y012146D03*
X017150Y011146D03*
X017150Y010146D03*
X017150Y009146D03*
X017150Y008146D03*
X017150Y007146D03*
X017150Y006146D03*
X018150Y006146D03*
X018150Y007146D03*
X018150Y008146D03*
X018150Y009146D03*
X018150Y010146D03*
X018150Y011146D03*
X018150Y012146D03*
X018150Y013146D03*
X018150Y014146D03*
X018150Y015146D03*
X018150Y016146D03*
X018150Y017146D03*
D16*
X011142Y006000D03*
X011142Y005213D03*
X010158Y005213D03*
X010158Y006000D03*
D17*
X008280Y004146D03*
X013020Y004146D03*
D18*
X016285Y018460D03*
X016285Y020232D03*
X019415Y020232D03*
X019415Y018460D03*
D19*
X014024Y018146D03*
X013276Y018146D03*
X006524Y018146D03*
X005776Y018146D03*
X003524Y004646D03*
X002776Y004646D03*
D20*
X004737Y004646D03*
X005563Y004646D03*
X004425Y018933D03*
X004425Y019759D03*
D21*
X004475Y019785D02*
X005721Y019785D01*
X005721Y019824D02*
X005721Y019468D01*
X005971Y019218D01*
X005971Y018872D01*
X006076Y018767D01*
X006271Y018572D01*
X006271Y018570D01*
X006215Y018570D01*
X006150Y018505D01*
X006085Y018570D01*
X005829Y018570D01*
X005829Y018720D01*
X005542Y019007D01*
X005437Y019111D01*
X004790Y019111D01*
X004790Y019222D01*
X004715Y019298D01*
X004135Y019298D01*
X004060Y019222D01*
X004060Y018643D01*
X004135Y018568D01*
X004715Y018568D01*
X004790Y018643D01*
X004790Y018754D01*
X005289Y018754D01*
X005471Y018572D01*
X005471Y018570D01*
X005467Y018570D01*
X005391Y018495D01*
X005391Y017797D01*
X005467Y017722D01*
X006085Y017722D01*
X006150Y017787D01*
X006215Y017722D01*
X006833Y017722D01*
X006909Y017797D01*
X006909Y018495D01*
X006833Y018570D01*
X006629Y018570D01*
X006629Y018720D01*
X006329Y019020D01*
X006329Y019218D01*
X006579Y019468D01*
X006579Y019824D01*
X006348Y020054D01*
X006348Y020238D01*
X006579Y020468D01*
X006579Y020824D01*
X006328Y021075D01*
X005972Y021075D01*
X005721Y020824D01*
X005721Y020468D01*
X005972Y020217D01*
X005991Y020217D01*
X005991Y020075D01*
X005972Y020075D01*
X005721Y019824D01*
X005781Y019884D02*
X004811Y019884D01*
X004811Y019809D02*
X004811Y020015D01*
X004801Y020054D01*
X004781Y020088D01*
X004753Y020116D01*
X004719Y020135D01*
X004681Y020146D01*
X004475Y020146D01*
X004475Y019809D01*
X004811Y019809D01*
X004811Y019709D02*
X004475Y019709D01*
X004475Y019373D01*
X004681Y019373D01*
X004719Y019383D01*
X004753Y019403D01*
X004781Y019431D01*
X004801Y019465D01*
X004811Y019503D01*
X004811Y019709D01*
X004811Y019687D02*
X005721Y019687D01*
X005721Y019588D02*
X004811Y019588D01*
X004808Y019490D02*
X005721Y019490D01*
X005799Y019391D02*
X004732Y019391D01*
X004720Y019293D02*
X005897Y019293D01*
X005971Y019194D02*
X004790Y019194D01*
X004475Y019391D02*
X004375Y019391D01*
X004375Y019373D02*
X004169Y019373D01*
X004131Y019383D01*
X004097Y019403D01*
X004069Y019431D01*
X004049Y019465D01*
X004039Y019503D01*
X004039Y019709D01*
X004375Y019709D01*
X004475Y019709D01*
X004475Y019809D01*
X004375Y019809D01*
X004375Y019709D01*
X004375Y019373D01*
X004375Y019490D02*
X004475Y019490D01*
X004475Y019588D02*
X004375Y019588D01*
X004375Y019687D02*
X004475Y019687D01*
X004375Y019785D02*
X001300Y019785D01*
X001300Y019687D02*
X004039Y019687D01*
X004039Y019588D02*
X001300Y019588D01*
X001300Y019490D02*
X004042Y019490D01*
X004118Y019391D02*
X001300Y019391D01*
X001300Y019293D02*
X004130Y019293D01*
X004060Y019194D02*
X001300Y019194D01*
X001300Y019096D02*
X004060Y019096D01*
X004060Y018997D02*
X001300Y018997D01*
X001300Y018899D02*
X004060Y018899D01*
X004060Y018800D02*
X001300Y018800D01*
X001300Y018702D02*
X004060Y018702D01*
X004100Y018603D02*
X001300Y018603D01*
X001300Y018505D02*
X005401Y018505D01*
X005391Y018406D02*
X001300Y018406D01*
X001300Y018308D02*
X005391Y018308D01*
X005391Y018209D02*
X001300Y018209D01*
X001300Y018111D02*
X005391Y018111D01*
X005391Y018012D02*
X001300Y018012D01*
X001300Y017914D02*
X005391Y017914D01*
X005391Y017815D02*
X001300Y017815D01*
X001300Y017717D02*
X009860Y017717D01*
X009860Y017815D02*
X006909Y017815D01*
X006909Y017914D02*
X009860Y017914D01*
X009860Y018012D02*
X006909Y018012D01*
X006909Y018111D02*
X009860Y018111D01*
X009860Y018209D02*
X006909Y018209D01*
X006909Y018308D02*
X009860Y018308D01*
X009860Y018406D02*
X006909Y018406D01*
X006899Y018505D02*
X009860Y018505D01*
X009860Y018603D02*
X006629Y018603D01*
X006629Y018702D02*
X009874Y018702D01*
X009872Y018696D02*
X009860Y018637D01*
X009860Y017546D01*
X010600Y017546D01*
X010600Y017446D01*
X010700Y017446D01*
X010700Y016076D01*
X011161Y016076D01*
X011220Y016088D01*
X011277Y016111D01*
X011328Y016145D01*
X011371Y016188D01*
X011405Y016239D01*
X011428Y016296D01*
X011440Y016356D01*
X011440Y017446D01*
X010700Y017446D01*
X010700Y017546D01*
X011440Y017546D01*
X011440Y018637D01*
X011428Y018696D01*
X011405Y018753D01*
X011371Y018804D01*
X011328Y018847D01*
X011277Y018881D01*
X011220Y018904D01*
X011161Y018916D01*
X010700Y018916D01*
X010700Y017546D01*
X010600Y017546D01*
X010600Y018916D01*
X010139Y018916D01*
X010080Y018904D01*
X010023Y018881D01*
X009972Y018847D01*
X009929Y018804D01*
X009895Y018753D01*
X009872Y018696D01*
X009927Y018800D02*
X006549Y018800D01*
X006450Y018899D02*
X010066Y018899D01*
X009972Y019217D02*
X010328Y019217D01*
X010579Y019468D01*
X010579Y019824D01*
X010328Y020075D01*
X009972Y020075D01*
X009721Y019824D01*
X009721Y019468D01*
X009972Y019217D01*
X009897Y019293D02*
X009403Y019293D01*
X009328Y019217D02*
X009579Y019468D01*
X009579Y019824D01*
X009328Y020075D01*
X008972Y020075D01*
X008721Y019824D01*
X008721Y019468D01*
X008972Y019217D01*
X009328Y019217D01*
X009501Y019391D02*
X009799Y019391D01*
X009721Y019490D02*
X009579Y019490D01*
X009579Y019588D02*
X009721Y019588D01*
X009721Y019687D02*
X009579Y019687D01*
X009579Y019785D02*
X009721Y019785D01*
X009781Y019884D02*
X009519Y019884D01*
X009420Y019982D02*
X009880Y019982D01*
X009964Y020196D02*
X010100Y020196D01*
X010100Y020596D01*
X010200Y020596D01*
X010200Y020196D01*
X010336Y020196D01*
X010600Y020460D01*
X010600Y020596D01*
X010200Y020596D01*
X010200Y020696D01*
X010600Y020696D01*
X010600Y020832D01*
X010336Y021096D01*
X010200Y021096D01*
X010200Y020696D01*
X010100Y020696D01*
X010100Y020596D01*
X009700Y020596D01*
X009700Y020460D01*
X009964Y020196D01*
X009882Y020278D02*
X009418Y020278D01*
X009336Y020196D02*
X009600Y020460D01*
X009600Y020596D01*
X009200Y020596D01*
X009200Y020196D01*
X009336Y020196D01*
X009200Y020278D02*
X009100Y020278D01*
X009100Y020196D02*
X009100Y020596D01*
X009200Y020596D01*
X009200Y020696D01*
X009600Y020696D01*
X009600Y020832D01*
X009336Y021096D01*
X009200Y021096D01*
X009200Y020696D01*
X009100Y020696D01*
X009100Y020596D01*
X008700Y020596D01*
X008700Y020460D01*
X008964Y020196D01*
X009100Y020196D01*
X009100Y020376D02*
X009200Y020376D01*
X009200Y020475D02*
X009100Y020475D01*
X009100Y020573D02*
X009200Y020573D01*
X009200Y020672D02*
X010100Y020672D01*
X010100Y020696D02*
X009700Y020696D01*
X009700Y020832D01*
X009964Y021096D01*
X010100Y021096D01*
X010100Y020696D01*
X010100Y020770D02*
X010200Y020770D01*
X010200Y020672D02*
X011100Y020672D01*
X011100Y020696D02*
X011100Y020596D01*
X011200Y020596D01*
X011200Y020196D01*
X011336Y020196D01*
X011600Y020460D01*
X011600Y020596D01*
X011200Y020596D01*
X011200Y020696D01*
X011600Y020696D01*
X011600Y020832D01*
X011336Y021096D01*
X011200Y021096D01*
X011200Y020696D01*
X011100Y020696D01*
X010700Y020696D01*
X010700Y020832D01*
X010964Y021096D01*
X011100Y021096D01*
X011100Y020696D01*
X011100Y020770D02*
X011200Y020770D01*
X011200Y020672D02*
X012100Y020672D01*
X012100Y020696D02*
X012100Y020596D01*
X012200Y020596D01*
X012200Y020196D01*
X012336Y020196D01*
X012600Y020460D01*
X012600Y020596D01*
X012200Y020596D01*
X012200Y020696D01*
X012600Y020696D01*
X012600Y020832D01*
X012336Y021096D01*
X012200Y021096D01*
X012200Y020696D01*
X012100Y020696D01*
X011700Y020696D01*
X011700Y020832D01*
X011964Y021096D01*
X012100Y021096D01*
X012100Y020696D01*
X012100Y020770D02*
X012200Y020770D01*
X012200Y020672D02*
X013100Y020672D01*
X013100Y020696D02*
X013100Y020596D01*
X013200Y020596D01*
X013200Y020196D01*
X013336Y020196D01*
X013600Y020460D01*
X013600Y020596D01*
X013200Y020596D01*
X013200Y020696D01*
X013600Y020696D01*
X013600Y020832D01*
X013336Y021096D01*
X013200Y021096D01*
X013200Y020696D01*
X013100Y020696D01*
X012700Y020696D01*
X012700Y020832D01*
X012964Y021096D01*
X013100Y021096D01*
X013100Y020696D01*
X013100Y020770D02*
X013200Y020770D01*
X013200Y020672D02*
X014100Y020672D01*
X014100Y020696D02*
X014100Y020596D01*
X014200Y020596D01*
X014200Y020196D01*
X014336Y020196D01*
X014600Y020460D01*
X014600Y020596D01*
X014200Y020596D01*
X014200Y020696D01*
X014600Y020696D01*
X014600Y020832D01*
X014336Y021096D01*
X014200Y021096D01*
X014200Y020696D01*
X014100Y020696D01*
X013700Y020696D01*
X013700Y020832D01*
X013964Y021096D01*
X014100Y021096D01*
X014100Y020696D01*
X014100Y020770D02*
X014200Y020770D01*
X014200Y020672D02*
X015100Y020672D01*
X015100Y020696D02*
X015100Y020596D01*
X015200Y020596D01*
X015200Y020196D01*
X015336Y020196D01*
X015600Y020460D01*
X015600Y020596D01*
X015200Y020596D01*
X015200Y020696D01*
X015600Y020696D01*
X015600Y020832D01*
X015336Y021096D01*
X015200Y021096D01*
X015200Y020696D01*
X015100Y020696D01*
X014700Y020696D01*
X014700Y020832D01*
X014964Y021096D01*
X015100Y021096D01*
X015100Y020696D01*
X015100Y020770D02*
X015200Y020770D01*
X015200Y020672D02*
X020000Y020672D01*
X020000Y020770D02*
X015600Y020770D01*
X015564Y020869D02*
X020000Y020869D01*
X020000Y020967D02*
X015465Y020967D01*
X015367Y021066D02*
X020000Y021066D01*
X020000Y021164D02*
X001300Y021164D01*
X001300Y021066D02*
X005963Y021066D01*
X005865Y020967D02*
X001300Y020967D01*
X001300Y020869D02*
X005766Y020869D01*
X005721Y020770D02*
X001300Y020770D01*
X001300Y020672D02*
X005721Y020672D01*
X005721Y020573D02*
X001300Y020573D01*
X001300Y020475D02*
X005721Y020475D01*
X005814Y020376D02*
X001300Y020376D01*
X001300Y020278D02*
X005912Y020278D01*
X005991Y020179D02*
X001300Y020179D01*
X001300Y020081D02*
X004065Y020081D01*
X004069Y020088D02*
X004049Y020054D01*
X004039Y020015D01*
X004039Y019809D01*
X004375Y019809D01*
X004375Y020146D01*
X004169Y020146D01*
X004131Y020135D01*
X004097Y020116D01*
X004069Y020088D01*
X004039Y019982D02*
X001300Y019982D01*
X001300Y019884D02*
X004039Y019884D01*
X004375Y019884D02*
X004475Y019884D01*
X004475Y019982D02*
X004375Y019982D01*
X004375Y020081D02*
X004475Y020081D01*
X004785Y020081D02*
X005991Y020081D01*
X005880Y019982D02*
X004811Y019982D01*
X005453Y019096D02*
X005971Y019096D01*
X005971Y018997D02*
X005552Y018997D01*
X005650Y018899D02*
X005971Y018899D01*
X006043Y018800D02*
X005749Y018800D01*
X005829Y018702D02*
X006142Y018702D01*
X006240Y018603D02*
X005829Y018603D01*
X005650Y018646D02*
X005650Y018272D01*
X005776Y018146D01*
X005650Y018646D02*
X005363Y018933D01*
X004425Y018933D01*
X004790Y018702D02*
X005342Y018702D01*
X005440Y018603D02*
X004750Y018603D01*
X004336Y017596D02*
X004200Y017596D01*
X004200Y017196D01*
X004600Y017196D01*
X004600Y017332D01*
X004336Y017596D01*
X004413Y017520D02*
X010600Y017520D01*
X010600Y017446D02*
X009860Y017446D01*
X009860Y016356D01*
X009872Y016296D01*
X009895Y016239D01*
X009929Y016188D01*
X009972Y016145D01*
X010023Y016111D01*
X010080Y016088D01*
X010139Y016076D01*
X010600Y016076D01*
X010600Y017446D01*
X010600Y017421D02*
X010700Y017421D01*
X010700Y017323D02*
X010600Y017323D01*
X010600Y017224D02*
X010700Y017224D01*
X010700Y017126D02*
X010600Y017126D01*
X010600Y017027D02*
X010700Y017027D01*
X010700Y016929D02*
X010600Y016929D01*
X010600Y016830D02*
X010700Y016830D01*
X010700Y016732D02*
X010600Y016732D01*
X010600Y016633D02*
X010700Y016633D01*
X010700Y016535D02*
X010600Y016535D01*
X010600Y016436D02*
X010700Y016436D01*
X010700Y016338D02*
X010600Y016338D01*
X010600Y016239D02*
X010700Y016239D01*
X010700Y016141D02*
X010600Y016141D01*
X010402Y015944D02*
X010898Y015944D01*
X010930Y015976D02*
X010820Y015866D01*
X010803Y015825D01*
X010776Y015825D01*
X010671Y015720D01*
X010539Y015588D01*
X010539Y015723D01*
X010480Y015866D01*
X010370Y015976D01*
X010227Y016035D01*
X010073Y016035D01*
X009930Y015976D01*
X009820Y015866D01*
X009761Y015723D01*
X009761Y015569D01*
X009778Y015527D01*
X009471Y015220D01*
X009471Y015068D01*
X007819Y016720D01*
X007714Y016825D01*
X004465Y016825D01*
X004600Y016960D01*
X004600Y017096D01*
X004200Y017096D01*
X004200Y017196D01*
X004100Y017196D01*
X004100Y017096D01*
X003700Y017096D01*
X003700Y016960D01*
X003835Y016825D01*
X003576Y016825D01*
X003326Y016575D01*
X002972Y016575D01*
X002721Y016324D01*
X002721Y015968D01*
X002972Y015717D01*
X003328Y015717D01*
X003579Y015968D01*
X003579Y016322D01*
X003724Y016467D01*
X003865Y016467D01*
X003721Y016324D01*
X003721Y015968D01*
X003972Y015717D01*
X004328Y015717D01*
X004578Y015967D01*
X005076Y015967D01*
X005576Y015467D01*
X008283Y015467D01*
X009463Y014287D01*
X009448Y014272D01*
X009433Y014257D01*
X008365Y015325D01*
X004578Y015325D01*
X004328Y015575D01*
X003972Y015575D01*
X003721Y015324D01*
X003721Y014968D01*
X003865Y014825D01*
X003576Y014825D01*
X003326Y014575D01*
X002972Y014575D01*
X002721Y014324D01*
X002721Y013968D01*
X002972Y013717D01*
X003328Y013717D01*
X003579Y013968D01*
X003579Y014322D01*
X003724Y014467D01*
X003865Y014467D01*
X003721Y014324D01*
X003721Y013968D01*
X003865Y013825D01*
X003576Y013825D01*
X003326Y013575D01*
X002972Y013575D01*
X002721Y013324D01*
X002721Y012968D01*
X002972Y012717D01*
X003328Y012717D01*
X003579Y012968D01*
X003579Y013322D01*
X003724Y013467D01*
X003865Y013467D01*
X003721Y013324D01*
X003721Y012968D01*
X003865Y012825D01*
X003576Y012825D01*
X003326Y012575D01*
X002972Y012575D01*
X002721Y012324D01*
X002721Y011968D01*
X002972Y011717D01*
X003328Y011717D01*
X003579Y011968D01*
X003579Y012322D01*
X003724Y012467D01*
X003865Y012467D01*
X003721Y012324D01*
X003721Y011968D01*
X003865Y011825D01*
X003576Y011825D01*
X003471Y011720D01*
X003326Y011575D01*
X002972Y011575D01*
X002721Y011324D01*
X002721Y010968D01*
X002972Y010717D01*
X003328Y010717D01*
X003579Y010968D01*
X003579Y011322D01*
X003724Y011467D01*
X003865Y011467D01*
X003721Y011324D01*
X003721Y010968D01*
X003865Y010825D01*
X003576Y010825D01*
X003471Y010720D01*
X003326Y010575D01*
X002972Y010575D01*
X002721Y010324D01*
X002721Y009968D01*
X002972Y009717D01*
X003328Y009717D01*
X003579Y009968D01*
X003579Y010322D01*
X003724Y010467D01*
X003865Y010467D01*
X003721Y010324D01*
X003721Y009968D01*
X003865Y009825D01*
X003576Y009825D01*
X003471Y009720D01*
X003326Y009575D01*
X002972Y009575D01*
X002722Y009325D01*
X002576Y009325D01*
X002471Y009220D01*
X001971Y008720D01*
X001971Y005572D01*
X002076Y005467D01*
X002473Y005070D01*
X002467Y005070D01*
X002391Y004995D01*
X002391Y004297D01*
X002467Y004222D01*
X003085Y004222D01*
X003150Y004287D01*
X003215Y004222D01*
X003833Y004222D01*
X003909Y004297D01*
X003909Y004467D01*
X004372Y004467D01*
X004372Y004357D01*
X004447Y004281D01*
X005026Y004281D01*
X005102Y004357D01*
X005102Y004936D01*
X005070Y004967D01*
X005076Y004967D01*
X005198Y004845D01*
X005198Y004357D01*
X005274Y004281D01*
X005853Y004281D01*
X005928Y004357D01*
X005928Y004936D01*
X005853Y005011D01*
X005538Y005011D01*
X005329Y005220D01*
X005224Y005325D01*
X004224Y005325D01*
X003579Y005970D01*
X003579Y006322D01*
X003724Y006467D01*
X003865Y006467D01*
X003721Y006324D01*
X003721Y005968D01*
X003972Y005717D01*
X004328Y005717D01*
X004578Y005967D01*
X005780Y005967D01*
X010201Y010389D01*
X010215Y010389D01*
X010574Y010747D01*
X010574Y010854D01*
X010432Y010995D01*
X010432Y010995D01*
X010272Y011156D01*
X010131Y011297D01*
X009989Y011438D01*
X009848Y011580D01*
X009742Y011686D01*
X009736Y011707D01*
X009716Y011741D01*
X009660Y011798D01*
X009645Y011813D01*
X009704Y011872D01*
X009704Y012091D01*
X009785Y012172D01*
X009832Y012285D01*
X009832Y012407D01*
X009785Y012520D01*
X009699Y012606D01*
X009586Y012653D01*
X009554Y012653D01*
X009554Y012872D01*
X009649Y012967D01*
X010076Y012967D01*
X010868Y012175D01*
X010868Y012060D01*
X010915Y011947D01*
X011001Y011861D01*
X011114Y011814D01*
X011236Y011814D01*
X011349Y011861D01*
X011435Y011947D01*
X011460Y012008D01*
X011465Y011997D01*
X011551Y011911D01*
X011664Y011864D01*
X011737Y011864D01*
X011716Y011844D01*
X011575Y011702D01*
X011433Y011561D01*
X011292Y011420D01*
X011151Y011278D01*
X011009Y011137D01*
X011009Y011137D01*
X010868Y010995D01*
X010726Y010854D01*
X010726Y010747D01*
X011085Y010389D01*
X011099Y010389D01*
X016020Y005467D01*
X017724Y005467D01*
X017829Y005572D01*
X017974Y005717D01*
X018328Y005717D01*
X018579Y005968D01*
X018579Y006324D01*
X018328Y006575D01*
X017972Y006575D01*
X017721Y006324D01*
X017721Y005970D01*
X017576Y005825D01*
X017435Y005825D01*
X017579Y005968D01*
X017579Y006324D01*
X017435Y006467D01*
X017724Y006467D01*
X017829Y006572D01*
X017974Y006717D01*
X018328Y006717D01*
X018579Y006968D01*
X018579Y007324D01*
X018328Y007575D01*
X017972Y007575D01*
X017721Y007324D01*
X017721Y006970D01*
X017576Y006825D01*
X017435Y006825D01*
X017579Y006968D01*
X017579Y007324D01*
X017435Y007467D01*
X017724Y007467D01*
X017829Y007572D01*
X017974Y007717D01*
X018328Y007717D01*
X018579Y007968D01*
X018579Y008324D01*
X018328Y008575D01*
X017972Y008575D01*
X017721Y008324D01*
X017721Y007970D01*
X017576Y007825D01*
X017435Y007825D01*
X017579Y007968D01*
X017579Y008324D01*
X017435Y008467D01*
X017724Y008467D01*
X017829Y008572D01*
X017974Y008717D01*
X018328Y008717D01*
X018579Y008968D01*
X018579Y009324D01*
X018328Y009575D01*
X017972Y009575D01*
X017721Y009324D01*
X017721Y008970D01*
X017576Y008825D01*
X017435Y008825D01*
X017579Y008968D01*
X017579Y009324D01*
X017328Y009575D01*
X016972Y009575D01*
X016722Y009325D01*
X014648Y009325D01*
X012388Y011585D01*
X012464Y011662D01*
X012589Y011786D01*
X012610Y011792D01*
X012644Y011812D01*
X012701Y011868D01*
X012750Y011917D01*
X013001Y011917D01*
X013846Y011072D01*
X013951Y010967D01*
X016722Y010967D01*
X016972Y010717D01*
X017328Y010717D01*
X017579Y010968D01*
X017579Y011324D01*
X017435Y011467D01*
X017724Y011467D01*
X017829Y011572D01*
X017974Y011717D01*
X018328Y011717D01*
X018579Y011968D01*
X018579Y012324D01*
X018328Y012575D01*
X017972Y012575D01*
X017721Y012324D01*
X017721Y011970D01*
X017576Y011825D01*
X017435Y011825D01*
X017579Y011968D01*
X017579Y012324D01*
X017435Y012467D01*
X017724Y012467D01*
X017829Y012572D01*
X017974Y012717D01*
X018328Y012717D01*
X018579Y012968D01*
X018579Y013324D01*
X018328Y013575D01*
X017972Y013575D01*
X017721Y013324D01*
X017721Y012970D01*
X017576Y012825D01*
X017435Y012825D01*
X017579Y012968D01*
X017579Y013324D01*
X017435Y013467D01*
X017724Y013467D01*
X017829Y013572D01*
X017974Y013717D01*
X018328Y013717D01*
X018579Y013968D01*
X018579Y014324D01*
X018328Y014575D01*
X017972Y014575D01*
X017721Y014324D01*
X017721Y013970D01*
X017576Y013825D01*
X017465Y013825D01*
X017600Y013960D01*
X017600Y014096D01*
X017200Y014096D01*
X017200Y014196D01*
X017600Y014196D01*
X017600Y014332D01*
X017465Y014467D01*
X017724Y014467D01*
X017829Y014572D01*
X017829Y014572D01*
X017974Y014717D01*
X018328Y014717D01*
X018579Y014968D01*
X018579Y015324D01*
X018328Y015575D01*
X017972Y015575D01*
X017721Y015324D01*
X017721Y014970D01*
X017576Y014825D01*
X017435Y014825D01*
X017579Y014968D01*
X017579Y015324D01*
X017435Y015467D01*
X017724Y015467D01*
X017829Y015572D01*
X017974Y015717D01*
X018328Y015717D01*
X018579Y015968D01*
X018579Y016324D01*
X018328Y016575D01*
X017972Y016575D01*
X017721Y016324D01*
X017721Y015970D01*
X017576Y015825D01*
X017435Y015825D01*
X017579Y015968D01*
X017579Y016324D01*
X017435Y016467D01*
X017724Y016467D01*
X017829Y016572D01*
X017974Y016717D01*
X018328Y016717D01*
X018579Y016968D01*
X018579Y017324D01*
X018328Y017575D01*
X017972Y017575D01*
X017721Y017324D01*
X017721Y016970D01*
X017576Y016825D01*
X017435Y016825D01*
X017579Y016968D01*
X017579Y017324D01*
X017328Y017575D01*
X016972Y017575D01*
X016722Y017325D01*
X013520Y017325D01*
X011099Y014903D01*
X011085Y014903D01*
X010726Y014545D01*
X010726Y014438D01*
X010868Y014297D01*
X010868Y014297D01*
X011028Y014137D01*
X011165Y014000D01*
X011026Y014000D01*
X010751Y013725D01*
X010646Y013620D01*
X010646Y013222D01*
X011085Y012784D01*
X010996Y012695D01*
X010996Y012553D01*
X010329Y013220D01*
X010224Y013325D01*
X010113Y013325D01*
X010160Y013372D01*
X010207Y013485D01*
X010207Y013607D01*
X010160Y013720D01*
X010074Y013806D01*
X010001Y013836D01*
X010019Y013868D01*
X010025Y013889D01*
X010149Y014014D01*
X010291Y014155D01*
X010432Y014297D01*
X010574Y014438D01*
X010574Y014545D01*
X010304Y014815D01*
X010304Y014847D01*
X010852Y015395D01*
X010930Y015317D01*
X011073Y015257D01*
X011227Y015257D01*
X011370Y015317D01*
X011480Y015426D01*
X011539Y015569D01*
X011539Y015723D01*
X011480Y015866D01*
X011370Y015976D01*
X011227Y016035D01*
X011073Y016035D01*
X010930Y015976D01*
X010812Y015845D02*
X010488Y015845D01*
X010529Y015747D02*
X010698Y015747D01*
X010599Y015648D02*
X010539Y015648D01*
X010850Y015646D02*
X011150Y015646D01*
X011406Y015353D02*
X011548Y015353D01*
X011490Y015451D02*
X011647Y015451D01*
X011745Y015550D02*
X011531Y015550D01*
X011539Y015648D02*
X011844Y015648D01*
X011942Y015747D02*
X011529Y015747D01*
X011488Y015845D02*
X012041Y015845D01*
X012139Y015944D02*
X011402Y015944D01*
X011321Y016141D02*
X012336Y016141D01*
X012435Y016239D02*
X011405Y016239D01*
X011436Y016338D02*
X012533Y016338D01*
X012632Y016436D02*
X011440Y016436D01*
X011440Y016535D02*
X012730Y016535D01*
X012829Y016633D02*
X011440Y016633D01*
X011440Y016732D02*
X012927Y016732D01*
X013026Y016830D02*
X011440Y016830D01*
X011440Y016929D02*
X013124Y016929D01*
X013223Y017027D02*
X011440Y017027D01*
X011440Y017126D02*
X013321Y017126D01*
X013420Y017224D02*
X011440Y017224D01*
X011440Y017323D02*
X013518Y017323D01*
X013594Y017146D02*
X011039Y014591D01*
X010943Y014762D02*
X010357Y014762D01*
X010317Y014860D02*
X011041Y014860D01*
X011154Y014959D02*
X010415Y014959D01*
X010514Y015057D02*
X011253Y015057D01*
X011351Y015156D02*
X010612Y015156D01*
X010711Y015254D02*
X011450Y015254D01*
X010894Y015353D02*
X010809Y015353D01*
X010850Y015646D02*
X010125Y014921D01*
X010125Y014727D01*
X010261Y014591D01*
X010120Y014449D02*
X009650Y014919D01*
X009650Y015146D01*
X010150Y015646D01*
X009898Y015944D02*
X008595Y015944D01*
X008497Y016042D02*
X012238Y016042D01*
X012976Y015396D02*
X011605Y014025D01*
X011604Y014025D01*
X011400Y013821D01*
X011100Y013821D01*
X010825Y013546D01*
X010825Y013296D01*
X011325Y012796D01*
X011350Y012796D01*
X011175Y012621D01*
X011175Y012121D01*
X010150Y013146D01*
X009575Y013146D01*
X009375Y012946D01*
X009375Y012496D01*
X009525Y012346D01*
X009525Y011946D01*
X009271Y011692D01*
X007225Y009646D01*
X003650Y009646D01*
X003150Y009146D01*
X002650Y009146D01*
X002150Y008646D01*
X002150Y005646D01*
X002776Y005020D01*
X002776Y004646D01*
X003145Y005010D02*
X003155Y005010D01*
X003150Y005005D02*
X003085Y005070D01*
X002955Y005070D01*
X002955Y005094D01*
X002329Y005720D01*
X002329Y008572D01*
X002723Y008967D01*
X002972Y008717D01*
X003328Y008717D01*
X003579Y008968D01*
X003579Y009322D01*
X003724Y009467D01*
X003835Y009467D01*
X003700Y009332D01*
X003700Y009196D01*
X004100Y009196D01*
X004100Y009096D01*
X003700Y009096D01*
X003700Y008960D01*
X003835Y008825D01*
X003576Y008825D01*
X003471Y008720D01*
X003326Y008575D01*
X002972Y008575D01*
X002721Y008324D01*
X002721Y007968D01*
X002972Y007717D01*
X003328Y007717D01*
X003579Y007968D01*
X003579Y008322D01*
X003724Y008467D01*
X003865Y008467D01*
X003721Y008324D01*
X003721Y007968D01*
X003865Y007825D01*
X003576Y007825D01*
X003471Y007720D01*
X003326Y007575D01*
X002972Y007575D01*
X002721Y007324D01*
X002721Y006968D01*
X002972Y006717D01*
X003328Y006717D01*
X003579Y006968D01*
X003579Y007322D01*
X003724Y007467D01*
X003865Y007467D01*
X003721Y007324D01*
X003721Y006968D01*
X003865Y006825D01*
X003576Y006825D01*
X003471Y006720D01*
X003326Y006575D01*
X002972Y006575D01*
X002721Y006324D01*
X002721Y005968D01*
X002972Y005717D01*
X003326Y005717D01*
X004076Y004967D01*
X004403Y004967D01*
X004372Y004936D01*
X004372Y004825D01*
X003909Y004825D01*
X003909Y004995D01*
X003833Y005070D01*
X003215Y005070D01*
X003150Y005005D01*
X002940Y005109D02*
X003935Y005109D01*
X003893Y005010D02*
X004033Y005010D01*
X003909Y004912D02*
X004372Y004912D01*
X004150Y005146D02*
X003150Y006146D01*
X003650Y006646D01*
X005923Y006646D01*
X010120Y010843D01*
X010261Y010702D02*
X005706Y006146D01*
X004150Y006146D01*
X003892Y005798D02*
X003751Y005798D01*
X003793Y005897D02*
X003652Y005897D01*
X003721Y005995D02*
X003579Y005995D01*
X003579Y006094D02*
X003721Y006094D01*
X003721Y006192D02*
X003579Y006192D01*
X003579Y006291D02*
X003721Y006291D01*
X003787Y006389D02*
X003646Y006389D01*
X003436Y006685D02*
X002329Y006685D01*
X002329Y006783D02*
X002907Y006783D01*
X002808Y006882D02*
X002329Y006882D01*
X002329Y006980D02*
X002721Y006980D01*
X002721Y007079D02*
X002329Y007079D01*
X002329Y007177D02*
X002721Y007177D01*
X002721Y007276D02*
X002329Y007276D01*
X002329Y007374D02*
X002772Y007374D01*
X002870Y007473D02*
X002329Y007473D01*
X002329Y007571D02*
X002969Y007571D01*
X002922Y007768D02*
X002329Y007768D01*
X002329Y007670D02*
X003421Y007670D01*
X003378Y007768D02*
X003519Y007768D01*
X003477Y007867D02*
X003823Y007867D01*
X003725Y007965D02*
X003575Y007965D01*
X003579Y008064D02*
X003721Y008064D01*
X003721Y008162D02*
X003579Y008162D01*
X003579Y008261D02*
X003721Y008261D01*
X003757Y008359D02*
X003616Y008359D01*
X003714Y008458D02*
X003855Y008458D01*
X003650Y008646D02*
X006791Y008646D01*
X009554Y011409D01*
X009429Y011550D02*
X010000Y012121D01*
X010000Y012596D01*
X009825Y012771D01*
X009710Y012595D02*
X010449Y012595D01*
X010350Y012693D02*
X009554Y012693D01*
X009554Y012792D02*
X010252Y012792D01*
X010153Y012890D02*
X009572Y012890D01*
X009795Y012496D02*
X010547Y012496D01*
X010646Y012398D02*
X009832Y012398D01*
X009832Y012299D02*
X010744Y012299D01*
X010843Y012201D02*
X009797Y012201D01*
X009715Y012102D02*
X010868Y012102D01*
X010892Y012004D02*
X009704Y012004D01*
X009704Y011905D02*
X010957Y011905D01*
X011393Y011905D02*
X011565Y011905D01*
X011462Y012004D02*
X011458Y012004D01*
X011679Y011807D02*
X009651Y011807D01*
X009660Y011798D02*
X009413Y011550D01*
X009413Y011550D01*
X009660Y011798D01*
X009736Y011708D02*
X011581Y011708D01*
X011482Y011610D02*
X009818Y011610D01*
X009916Y011511D02*
X011384Y011511D01*
X011285Y011413D02*
X010015Y011413D01*
X010113Y011314D02*
X011187Y011314D01*
X011151Y011278D02*
X011151Y011278D01*
X011088Y011216D02*
X010212Y011216D01*
X010310Y011117D02*
X010990Y011117D01*
X010891Y011019D02*
X010409Y011019D01*
X010507Y010920D02*
X010793Y010920D01*
X010868Y010995D02*
X010868Y010995D01*
X010726Y010822D02*
X010574Y010822D01*
X010550Y010723D02*
X010750Y010723D01*
X010849Y010625D02*
X010451Y010625D01*
X010353Y010526D02*
X010947Y010526D01*
X011046Y010428D02*
X010254Y010428D01*
X010141Y010329D02*
X011159Y010329D01*
X011257Y010231D02*
X010043Y010231D01*
X009944Y010132D02*
X011356Y010132D01*
X011454Y010034D02*
X009846Y010034D01*
X009747Y009935D02*
X011553Y009935D01*
X011651Y009837D02*
X009649Y009837D01*
X009550Y009738D02*
X011750Y009738D01*
X011848Y009640D02*
X009452Y009640D01*
X009353Y009541D02*
X011947Y009541D01*
X012045Y009443D02*
X009255Y009443D01*
X009156Y009344D02*
X012144Y009344D01*
X012242Y009246D02*
X009058Y009246D01*
X008959Y009147D02*
X012341Y009147D01*
X012439Y009049D02*
X008861Y009049D01*
X008762Y008950D02*
X009607Y008950D01*
X009614Y008953D02*
X009501Y008906D01*
X009415Y008820D01*
X009368Y008707D01*
X009368Y008585D01*
X009415Y008472D01*
X009501Y008386D01*
X009614Y008339D01*
X009729Y008339D01*
X010976Y007092D01*
X012695Y007092D01*
X012776Y007011D01*
X012889Y006964D01*
X013011Y006964D01*
X013124Y007011D01*
X013210Y007097D01*
X013257Y007210D01*
X013257Y007332D01*
X013210Y007445D01*
X013124Y007531D01*
X013011Y007578D01*
X012889Y007578D01*
X012776Y007531D01*
X012695Y007450D01*
X011124Y007450D01*
X009982Y008592D01*
X009982Y008707D01*
X009935Y008820D01*
X009849Y008906D01*
X009736Y008953D01*
X009614Y008953D01*
X009743Y008950D02*
X012538Y008950D01*
X012636Y008852D02*
X009903Y008852D01*
X009963Y008753D02*
X012735Y008753D01*
X012833Y008655D02*
X009982Y008655D01*
X010018Y008556D02*
X012932Y008556D01*
X013030Y008458D02*
X010116Y008458D01*
X010215Y008359D02*
X013129Y008359D01*
X013227Y008261D02*
X010313Y008261D01*
X010412Y008162D02*
X013326Y008162D01*
X013424Y008064D02*
X010510Y008064D01*
X010609Y007965D02*
X013523Y007965D01*
X013621Y007867D02*
X010707Y007867D01*
X010806Y007768D02*
X013720Y007768D01*
X013818Y007670D02*
X010904Y007670D01*
X011003Y007571D02*
X012872Y007571D01*
X013028Y007571D02*
X013917Y007571D01*
X014015Y007473D02*
X013182Y007473D01*
X013239Y007374D02*
X014114Y007374D01*
X014212Y007276D02*
X013257Y007276D01*
X013243Y007177D02*
X014311Y007177D01*
X014409Y007079D02*
X013191Y007079D01*
X013049Y006980D02*
X014508Y006980D01*
X014606Y006882D02*
X006694Y006882D01*
X006792Y006980D02*
X012851Y006980D01*
X012709Y007079D02*
X006891Y007079D01*
X006989Y007177D02*
X010891Y007177D01*
X010793Y007276D02*
X007088Y007276D01*
X007186Y007374D02*
X010694Y007374D01*
X010596Y007473D02*
X007285Y007473D01*
X007383Y007571D02*
X010497Y007571D01*
X010399Y007670D02*
X007482Y007670D01*
X007580Y007768D02*
X010300Y007768D01*
X010202Y007867D02*
X007679Y007867D01*
X007777Y007965D02*
X010103Y007965D01*
X010005Y008064D02*
X007876Y008064D01*
X007974Y008162D02*
X009906Y008162D01*
X009808Y008261D02*
X008073Y008261D01*
X008171Y008359D02*
X009566Y008359D01*
X009430Y008458D02*
X008270Y008458D01*
X008368Y008556D02*
X009380Y008556D01*
X009368Y008655D02*
X008467Y008655D01*
X008565Y008753D02*
X009387Y008753D01*
X009447Y008852D02*
X008664Y008852D01*
X009675Y008646D02*
X011050Y007271D01*
X012950Y007271D01*
X012718Y007473D02*
X011101Y007473D01*
X010970Y006416D02*
X010726Y006173D01*
X010726Y005828D01*
X010933Y005622D01*
X010705Y005394D01*
X010705Y005256D01*
X011099Y005256D01*
X011099Y005169D01*
X011186Y005169D01*
X011186Y004776D01*
X011323Y004776D01*
X011579Y005032D01*
X011579Y005169D01*
X011186Y005169D01*
X011186Y005256D01*
X011579Y005256D01*
X011579Y005394D01*
X011351Y005622D01*
X011558Y005828D01*
X011558Y006173D01*
X011314Y006416D01*
X010970Y006416D01*
X010943Y006389D02*
X010357Y006389D01*
X010330Y006416D02*
X009986Y006416D01*
X009742Y006173D01*
X009742Y005828D01*
X009964Y005607D01*
X009742Y005385D01*
X009742Y005041D01*
X009986Y004797D01*
X010330Y004797D01*
X010574Y005041D01*
X010574Y005385D01*
X010352Y005607D01*
X010574Y005828D01*
X010574Y006173D01*
X010330Y006416D01*
X010456Y006291D02*
X010844Y006291D01*
X010746Y006192D02*
X010554Y006192D01*
X010574Y006094D02*
X010726Y006094D01*
X010726Y005995D02*
X010574Y005995D01*
X010574Y005897D02*
X010726Y005897D01*
X010756Y005798D02*
X010544Y005798D01*
X010445Y005700D02*
X010855Y005700D01*
X010912Y005601D02*
X010358Y005601D01*
X010456Y005503D02*
X010814Y005503D01*
X010715Y005404D02*
X010555Y005404D01*
X010574Y005306D02*
X010705Y005306D01*
X010705Y005169D02*
X010705Y005032D01*
X010961Y004776D01*
X011099Y004776D01*
X011099Y005169D01*
X010705Y005169D01*
X010705Y005109D02*
X010574Y005109D01*
X010574Y005207D02*
X011099Y005207D01*
X011186Y005207D02*
X020000Y005207D01*
X020000Y005109D02*
X011579Y005109D01*
X011557Y005010D02*
X020000Y005010D01*
X020000Y004912D02*
X013214Y004912D01*
X013176Y004928D02*
X012865Y004928D01*
X012577Y004809D01*
X012358Y004589D01*
X012239Y004302D01*
X012239Y003991D01*
X012358Y003703D01*
X012577Y003484D01*
X012865Y003365D01*
X013176Y003365D01*
X013463Y003484D01*
X013683Y003703D01*
X013802Y003991D01*
X013802Y004302D01*
X013683Y004589D01*
X013463Y004809D01*
X013176Y004928D01*
X012826Y004912D02*
X011459Y004912D01*
X011360Y004813D02*
X012588Y004813D01*
X012483Y004715D02*
X008817Y004715D01*
X008723Y004809D02*
X008942Y004589D01*
X009061Y004302D01*
X009061Y003991D01*
X008942Y003703D01*
X008723Y003484D01*
X008435Y003365D01*
X008124Y003365D01*
X007837Y003484D01*
X007617Y003703D01*
X007498Y003991D01*
X007498Y004302D01*
X007617Y004589D01*
X007837Y004809D01*
X008124Y004928D01*
X008435Y004928D01*
X008723Y004809D01*
X008712Y004813D02*
X009970Y004813D01*
X009871Y004912D02*
X008474Y004912D01*
X008086Y004912D02*
X005928Y004912D01*
X005928Y004813D02*
X007848Y004813D01*
X007743Y004715D02*
X005928Y004715D01*
X005928Y004616D02*
X007645Y004616D01*
X007588Y004518D02*
X005928Y004518D01*
X005928Y004419D02*
X007547Y004419D01*
X007506Y004321D02*
X005892Y004321D01*
X005563Y004646D02*
X005563Y004733D01*
X005150Y005146D01*
X004150Y005146D01*
X004145Y005404D02*
X009761Y005404D01*
X009742Y005306D02*
X005243Y005306D01*
X005342Y005207D02*
X009742Y005207D01*
X009742Y005109D02*
X005440Y005109D01*
X005132Y004912D02*
X005102Y004912D01*
X005102Y004813D02*
X005198Y004813D01*
X005198Y004715D02*
X005102Y004715D01*
X005102Y004616D02*
X005198Y004616D01*
X005198Y004518D02*
X005102Y004518D01*
X005102Y004419D02*
X005198Y004419D01*
X005234Y004321D02*
X005066Y004321D01*
X004737Y004646D02*
X003524Y004646D01*
X003909Y004419D02*
X004372Y004419D01*
X004408Y004321D02*
X003909Y004321D01*
X003833Y004222D02*
X007498Y004222D01*
X007498Y004124D02*
X001300Y004124D01*
X001300Y004222D02*
X002467Y004222D01*
X002391Y004321D02*
X001300Y004321D01*
X001300Y004419D02*
X002391Y004419D01*
X002391Y004518D02*
X001300Y004518D01*
X001300Y004616D02*
X002391Y004616D01*
X002391Y004715D02*
X001300Y004715D01*
X001300Y004813D02*
X002391Y004813D01*
X002391Y004912D02*
X001300Y004912D01*
X001300Y005010D02*
X002407Y005010D01*
X002435Y005109D02*
X001300Y005109D01*
X001300Y005207D02*
X002336Y005207D01*
X002238Y005306D02*
X001300Y005306D01*
X001300Y005404D02*
X002139Y005404D01*
X002041Y005503D02*
X001300Y005503D01*
X001300Y005601D02*
X001971Y005601D01*
X001971Y005700D02*
X001300Y005700D01*
X001300Y005798D02*
X001971Y005798D01*
X001971Y005897D02*
X001300Y005897D01*
X001300Y005995D02*
X001971Y005995D01*
X001971Y006094D02*
X001300Y006094D01*
X001300Y006192D02*
X001971Y006192D01*
X001971Y006291D02*
X001300Y006291D01*
X001300Y006389D02*
X001971Y006389D01*
X001971Y006488D02*
X001300Y006488D01*
X001300Y006586D02*
X001971Y006586D01*
X001971Y006685D02*
X001300Y006685D01*
X001300Y006783D02*
X001971Y006783D01*
X001971Y006882D02*
X001300Y006882D01*
X001300Y006980D02*
X001971Y006980D01*
X001971Y007079D02*
X001300Y007079D01*
X001300Y007177D02*
X001971Y007177D01*
X001971Y007276D02*
X001300Y007276D01*
X001300Y007374D02*
X001971Y007374D01*
X001971Y007473D02*
X001300Y007473D01*
X001300Y007571D02*
X001971Y007571D01*
X001971Y007670D02*
X001300Y007670D01*
X001300Y007768D02*
X001971Y007768D01*
X001971Y007867D02*
X001300Y007867D01*
X001300Y007965D02*
X001971Y007965D01*
X001971Y008064D02*
X001300Y008064D01*
X001300Y008162D02*
X001971Y008162D01*
X001971Y008261D02*
X001300Y008261D01*
X001300Y008359D02*
X001971Y008359D01*
X001971Y008458D02*
X001300Y008458D01*
X001300Y008556D02*
X001971Y008556D01*
X001971Y008655D02*
X001300Y008655D01*
X001300Y008753D02*
X002004Y008753D01*
X002103Y008852D02*
X001300Y008852D01*
X001300Y008950D02*
X002201Y008950D01*
X002300Y009049D02*
X001300Y009049D01*
X001300Y009147D02*
X002398Y009147D01*
X002497Y009246D02*
X001300Y009246D01*
X001300Y009344D02*
X002742Y009344D01*
X002840Y009443D02*
X001300Y009443D01*
X001300Y009541D02*
X002939Y009541D01*
X002952Y009738D02*
X001300Y009738D01*
X001300Y009640D02*
X003391Y009640D01*
X003348Y009738D02*
X003489Y009738D01*
X003447Y009837D02*
X003853Y009837D01*
X003755Y009935D02*
X003545Y009935D01*
X003579Y010034D02*
X003721Y010034D01*
X003721Y010132D02*
X003579Y010132D01*
X003579Y010231D02*
X003721Y010231D01*
X003727Y010329D02*
X003586Y010329D01*
X003684Y010428D02*
X003825Y010428D01*
X003650Y010646D02*
X007660Y010646D01*
X008988Y011974D01*
X009130Y011833D02*
X007443Y010146D01*
X004150Y010146D01*
X003650Y010646D02*
X003150Y010146D01*
X002853Y009837D02*
X001300Y009837D01*
X001300Y009935D02*
X002755Y009935D01*
X002721Y010034D02*
X001300Y010034D01*
X001300Y010132D02*
X002721Y010132D01*
X002721Y010231D02*
X001300Y010231D01*
X001300Y010329D02*
X002727Y010329D01*
X002825Y010428D02*
X001300Y010428D01*
X001300Y010526D02*
X002924Y010526D01*
X002967Y010723D02*
X001300Y010723D01*
X001300Y010625D02*
X003376Y010625D01*
X003333Y010723D02*
X003474Y010723D01*
X003432Y010822D02*
X003573Y010822D01*
X003530Y010920D02*
X003770Y010920D01*
X003721Y011019D02*
X003579Y011019D01*
X003579Y011117D02*
X003721Y011117D01*
X003721Y011216D02*
X003579Y011216D01*
X003579Y011314D02*
X003721Y011314D01*
X003669Y011413D02*
X003810Y011413D01*
X003650Y011646D02*
X008094Y011646D01*
X008705Y012257D01*
X008847Y012116D02*
X007877Y011146D01*
X004150Y011146D01*
X003650Y011646D02*
X003150Y011146D01*
X002868Y010822D02*
X001300Y010822D01*
X001300Y010920D02*
X002770Y010920D01*
X002721Y011019D02*
X001300Y011019D01*
X001300Y011117D02*
X002721Y011117D01*
X002721Y011216D02*
X001300Y011216D01*
X001300Y011314D02*
X002721Y011314D01*
X002810Y011413D02*
X001300Y011413D01*
X001300Y011511D02*
X002909Y011511D01*
X002883Y011807D02*
X001300Y011807D01*
X001300Y011905D02*
X002785Y011905D01*
X002721Y012004D02*
X001300Y012004D01*
X001300Y012102D02*
X002721Y012102D01*
X002721Y012201D02*
X001300Y012201D01*
X001300Y012299D02*
X002721Y012299D01*
X002795Y012398D02*
X001300Y012398D01*
X001300Y012496D02*
X002894Y012496D01*
X003150Y012146D02*
X003650Y012646D01*
X006650Y012646D01*
X007650Y013646D01*
X008377Y013646D01*
X008847Y013176D01*
X008705Y013035D02*
X008594Y013146D01*
X007650Y013146D01*
X006650Y012146D01*
X004150Y012146D01*
X003721Y012102D02*
X003579Y012102D01*
X003579Y012004D02*
X003721Y012004D01*
X003785Y011905D02*
X003515Y011905D01*
X003558Y011807D02*
X003417Y011807D01*
X003459Y011708D02*
X001300Y011708D01*
X001300Y011610D02*
X003361Y011610D01*
X003579Y012201D02*
X003721Y012201D01*
X003721Y012299D02*
X003579Y012299D01*
X003654Y012398D02*
X003795Y012398D01*
X003444Y012693D02*
X001300Y012693D01*
X001300Y012595D02*
X003346Y012595D01*
X003402Y012792D02*
X003543Y012792D01*
X003500Y012890D02*
X003800Y012890D01*
X003721Y012989D02*
X003579Y012989D01*
X003579Y013087D02*
X003721Y013087D01*
X003721Y013186D02*
X003579Y013186D01*
X003579Y013284D02*
X003721Y013284D01*
X003780Y013383D02*
X003639Y013383D01*
X003650Y013646D02*
X003150Y013146D01*
X002800Y012890D02*
X001300Y012890D01*
X001300Y012792D02*
X002898Y012792D01*
X002721Y012989D02*
X001300Y012989D01*
X001300Y013087D02*
X002721Y013087D01*
X002721Y013186D02*
X001300Y013186D01*
X001300Y013284D02*
X002721Y013284D01*
X002780Y013383D02*
X001300Y013383D01*
X001300Y013481D02*
X002879Y013481D01*
X002913Y013777D02*
X001300Y013777D01*
X001300Y013875D02*
X002815Y013875D01*
X002721Y013974D02*
X001300Y013974D01*
X001300Y014072D02*
X002721Y014072D01*
X002721Y014171D02*
X001300Y014171D01*
X001300Y014269D02*
X002721Y014269D01*
X002765Y014368D02*
X001300Y014368D01*
X001300Y014466D02*
X002864Y014466D01*
X002962Y014565D02*
X001300Y014565D01*
X001300Y014663D02*
X003414Y014663D01*
X003336Y014696D02*
X003600Y014960D01*
X003600Y015096D01*
X003200Y015096D01*
X003200Y014696D01*
X003336Y014696D01*
X003402Y014762D02*
X003513Y014762D01*
X003500Y014860D02*
X003830Y014860D01*
X003731Y014959D02*
X003599Y014959D01*
X003600Y015057D02*
X003721Y015057D01*
X003721Y015156D02*
X003200Y015156D01*
X003200Y015196D02*
X003600Y015196D01*
X003600Y015332D01*
X003336Y015596D01*
X003200Y015596D01*
X003200Y015196D01*
X003200Y015096D01*
X003100Y015096D01*
X003100Y014696D01*
X002964Y014696D01*
X002700Y014960D01*
X002700Y015096D01*
X003100Y015096D01*
X003100Y015196D01*
X002700Y015196D01*
X002700Y015332D01*
X002964Y015596D01*
X003100Y015596D01*
X003100Y015196D01*
X003200Y015196D01*
X003200Y015254D02*
X003100Y015254D01*
X003100Y015156D02*
X001300Y015156D01*
X001300Y015254D02*
X002700Y015254D01*
X002720Y015353D02*
X001300Y015353D01*
X001300Y015451D02*
X002819Y015451D01*
X002917Y015550D02*
X001300Y015550D01*
X001300Y015648D02*
X005395Y015648D01*
X005297Y015747D02*
X004357Y015747D01*
X004455Y015845D02*
X005198Y015845D01*
X005100Y015944D02*
X004554Y015944D01*
X004353Y015550D02*
X005494Y015550D01*
X005650Y015646D02*
X005150Y016146D01*
X004150Y016146D01*
X003845Y015845D02*
X003455Y015845D01*
X003357Y015747D02*
X003943Y015747D01*
X003947Y015550D02*
X003383Y015550D01*
X003481Y015451D02*
X003849Y015451D01*
X003750Y015353D02*
X003580Y015353D01*
X003600Y015254D02*
X003721Y015254D01*
X004150Y015146D02*
X008291Y015146D01*
X009554Y013883D01*
X009563Y013883D01*
X009900Y013546D01*
X009891Y013546D01*
X010103Y013777D02*
X010803Y013777D01*
X010901Y013875D02*
X010021Y013875D01*
X010109Y013974D02*
X011000Y013974D01*
X011093Y014072D02*
X010207Y014072D01*
X010306Y014171D02*
X010994Y014171D01*
X010896Y014269D02*
X010404Y014269D01*
X010432Y014297D02*
X010432Y014297D01*
X010503Y014368D02*
X010797Y014368D01*
X010726Y014466D02*
X010574Y014466D01*
X010554Y014565D02*
X010746Y014565D01*
X010844Y014663D02*
X010456Y014663D01*
X009978Y014308D02*
X007640Y016646D01*
X003650Y016646D01*
X003150Y016146D01*
X002845Y015845D02*
X001300Y015845D01*
X001300Y015747D02*
X002943Y015747D01*
X003100Y015550D02*
X003200Y015550D01*
X003200Y015451D02*
X003100Y015451D01*
X003100Y015353D02*
X003200Y015353D01*
X003200Y015057D02*
X003100Y015057D01*
X003100Y014959D02*
X003200Y014959D01*
X003200Y014860D02*
X003100Y014860D01*
X003100Y014762D02*
X003200Y014762D01*
X002898Y014762D02*
X001300Y014762D01*
X001300Y014860D02*
X002800Y014860D01*
X002701Y014959D02*
X001300Y014959D01*
X001300Y015057D02*
X002700Y015057D01*
X002746Y015944D02*
X001300Y015944D01*
X001300Y016042D02*
X002721Y016042D01*
X002721Y016141D02*
X001300Y016141D01*
X001300Y016239D02*
X002721Y016239D01*
X002735Y016338D02*
X001300Y016338D01*
X001300Y016436D02*
X002834Y016436D01*
X002932Y016535D02*
X001300Y016535D01*
X001300Y016633D02*
X003384Y016633D01*
X003328Y016717D02*
X003579Y016968D01*
X003579Y017324D01*
X003328Y017575D01*
X002972Y017575D01*
X002721Y017324D01*
X002721Y016968D01*
X002972Y016717D01*
X003328Y016717D01*
X003342Y016732D02*
X003483Y016732D01*
X003440Y016830D02*
X003830Y016830D01*
X003731Y016929D02*
X003539Y016929D01*
X003579Y017027D02*
X003700Y017027D01*
X003579Y017126D02*
X004100Y017126D01*
X004100Y017196D02*
X003700Y017196D01*
X003700Y017332D01*
X003964Y017596D01*
X004100Y017596D01*
X004100Y017196D01*
X004100Y017224D02*
X004200Y017224D01*
X004200Y017126D02*
X009860Y017126D01*
X009860Y017224D02*
X004600Y017224D01*
X004600Y017323D02*
X009860Y017323D01*
X009860Y017421D02*
X004511Y017421D01*
X004200Y017421D02*
X004100Y017421D01*
X004100Y017323D02*
X004200Y017323D01*
X004200Y017520D02*
X004100Y017520D01*
X003887Y017520D02*
X003383Y017520D01*
X003481Y017421D02*
X003789Y017421D01*
X003700Y017323D02*
X003579Y017323D01*
X003579Y017224D02*
X003700Y017224D01*
X003693Y016436D02*
X003834Y016436D01*
X003735Y016338D02*
X003594Y016338D01*
X003579Y016239D02*
X003721Y016239D01*
X003721Y016141D02*
X003579Y016141D01*
X003579Y016042D02*
X003721Y016042D01*
X003746Y015944D02*
X003554Y015944D01*
X002958Y016732D02*
X001300Y016732D01*
X001300Y016830D02*
X002860Y016830D01*
X002761Y016929D02*
X001300Y016929D01*
X001300Y017027D02*
X002721Y017027D01*
X002721Y017126D02*
X001300Y017126D01*
X001300Y017224D02*
X002721Y017224D01*
X002721Y017323D02*
X001300Y017323D01*
X001300Y017421D02*
X002819Y017421D01*
X002917Y017520D02*
X001300Y017520D01*
X001300Y017618D02*
X009860Y017618D01*
X009860Y017027D02*
X004600Y017027D01*
X004569Y016929D02*
X009860Y016929D01*
X009860Y016830D02*
X004470Y016830D01*
X004435Y016467D02*
X004578Y016325D01*
X005224Y016325D01*
X005329Y016220D01*
X005724Y015825D01*
X008208Y015825D01*
X007566Y016467D01*
X004435Y016467D01*
X004466Y016436D02*
X007597Y016436D01*
X007696Y016338D02*
X004565Y016338D01*
X005310Y016239D02*
X007794Y016239D01*
X007893Y016141D02*
X005408Y016141D01*
X005507Y016042D02*
X007991Y016042D01*
X008090Y015944D02*
X005605Y015944D01*
X005704Y015845D02*
X008188Y015845D01*
X008357Y015646D02*
X005650Y015646D01*
X004550Y015353D02*
X008398Y015353D01*
X008436Y015254D02*
X008496Y015254D01*
X008535Y015156D02*
X008595Y015156D01*
X008633Y015057D02*
X008693Y015057D01*
X008732Y014959D02*
X008792Y014959D01*
X008830Y014860D02*
X008890Y014860D01*
X008929Y014762D02*
X008989Y014762D01*
X009027Y014663D02*
X009087Y014663D01*
X009126Y014565D02*
X009186Y014565D01*
X009224Y014466D02*
X009284Y014466D01*
X009323Y014368D02*
X009383Y014368D01*
X009421Y014269D02*
X009445Y014269D01*
X009448Y014272D02*
X009695Y014025D01*
X009695Y014025D01*
X009448Y014272D01*
X009451Y014269D02*
X009451Y014269D01*
X009550Y014171D02*
X009550Y014171D01*
X009648Y014072D02*
X009648Y014072D01*
X009837Y014166D02*
X008357Y015646D01*
X008299Y015451D02*
X004451Y015451D01*
X003650Y014646D02*
X003150Y014146D01*
X003579Y014171D02*
X003721Y014171D01*
X003721Y014269D02*
X003579Y014269D01*
X003624Y014368D02*
X003765Y014368D01*
X003723Y014466D02*
X003864Y014466D01*
X003650Y014646D02*
X008509Y014646D01*
X009413Y013742D01*
X009271Y013601D02*
X008476Y014396D01*
X006250Y014396D01*
X006000Y014146D01*
X004150Y014146D01*
X003815Y013875D02*
X003485Y013875D01*
X003528Y013777D02*
X003387Y013777D01*
X003429Y013678D02*
X001300Y013678D01*
X001300Y013580D02*
X003331Y013580D01*
X003650Y013646D02*
X006150Y013646D01*
X006650Y014146D01*
X008443Y014146D01*
X009130Y013459D01*
X008988Y013318D02*
X008385Y013921D01*
X007375Y013921D01*
X006600Y013146D01*
X004150Y013146D01*
X003721Y013974D02*
X003579Y013974D01*
X003579Y014072D02*
X003721Y014072D01*
X006524Y018146D02*
X006450Y018220D01*
X006450Y018646D01*
X006150Y018946D01*
X006150Y019646D01*
X006170Y019674D01*
X006170Y020609D01*
X006150Y020646D01*
X006579Y020672D02*
X007100Y020672D01*
X007100Y020696D02*
X007100Y020596D01*
X007200Y020596D01*
X007200Y020196D01*
X007336Y020196D01*
X007600Y020460D01*
X007600Y020596D01*
X007200Y020596D01*
X007200Y020696D01*
X007600Y020696D01*
X007600Y020832D01*
X007336Y021096D01*
X007200Y021096D01*
X007200Y020696D01*
X007100Y020696D01*
X006700Y020696D01*
X006700Y020832D01*
X006964Y021096D01*
X007100Y021096D01*
X007100Y020696D01*
X007100Y020770D02*
X007200Y020770D01*
X007200Y020672D02*
X008100Y020672D01*
X008100Y020696D02*
X008100Y020596D01*
X008200Y020596D01*
X008200Y020196D01*
X008336Y020196D01*
X008600Y020460D01*
X008600Y020596D01*
X008200Y020596D01*
X008200Y020696D01*
X008600Y020696D01*
X008600Y020832D01*
X008336Y021096D01*
X008200Y021096D01*
X008200Y020696D01*
X008100Y020696D01*
X007700Y020696D01*
X007700Y020832D01*
X007964Y021096D01*
X008100Y021096D01*
X008100Y020696D01*
X008100Y020770D02*
X008200Y020770D01*
X008200Y020672D02*
X009100Y020672D01*
X009100Y020696D02*
X008700Y020696D01*
X008700Y020832D01*
X008964Y021096D01*
X009100Y021096D01*
X009100Y020696D01*
X009100Y020770D02*
X009200Y020770D01*
X009200Y020869D02*
X009100Y020869D01*
X009100Y020967D02*
X009200Y020967D01*
X009200Y021066D02*
X009100Y021066D01*
X008933Y021066D02*
X008367Y021066D01*
X008465Y020967D02*
X008835Y020967D01*
X008736Y020869D02*
X008564Y020869D01*
X008600Y020770D02*
X008700Y020770D01*
X008700Y020573D02*
X008600Y020573D01*
X008600Y020475D02*
X008700Y020475D01*
X008784Y020376D02*
X008516Y020376D01*
X008418Y020278D02*
X008882Y020278D01*
X008880Y019982D02*
X008420Y019982D01*
X008328Y020075D02*
X007972Y020075D01*
X007721Y019824D01*
X007721Y019468D01*
X007972Y019217D01*
X008328Y019217D01*
X008579Y019468D01*
X008579Y019824D01*
X008328Y020075D01*
X008200Y020278D02*
X008100Y020278D01*
X008100Y020196D02*
X008100Y020596D01*
X007700Y020596D01*
X007700Y020460D01*
X007964Y020196D01*
X008100Y020196D01*
X008100Y020376D02*
X008200Y020376D01*
X008200Y020475D02*
X008100Y020475D01*
X008100Y020573D02*
X008200Y020573D01*
X008200Y020869D02*
X008100Y020869D01*
X008100Y020967D02*
X008200Y020967D01*
X008200Y021066D02*
X008100Y021066D01*
X007933Y021066D02*
X007367Y021066D01*
X007465Y020967D02*
X007835Y020967D01*
X007736Y020869D02*
X007564Y020869D01*
X007600Y020770D02*
X007700Y020770D01*
X007700Y020573D02*
X007600Y020573D01*
X007600Y020475D02*
X007700Y020475D01*
X007784Y020376D02*
X007516Y020376D01*
X007418Y020278D02*
X007882Y020278D01*
X007880Y019982D02*
X007420Y019982D01*
X007328Y020075D02*
X006972Y020075D01*
X006721Y019824D01*
X006721Y019468D01*
X006972Y019217D01*
X007328Y019217D01*
X007579Y019468D01*
X007579Y019824D01*
X007328Y020075D01*
X007200Y020278D02*
X007100Y020278D01*
X007100Y020196D02*
X007100Y020596D01*
X006700Y020596D01*
X006700Y020460D01*
X006964Y020196D01*
X007100Y020196D01*
X007100Y020376D02*
X007200Y020376D01*
X007200Y020475D02*
X007100Y020475D01*
X007100Y020573D02*
X007200Y020573D01*
X007200Y020869D02*
X007100Y020869D01*
X007100Y020967D02*
X007200Y020967D01*
X007200Y021066D02*
X007100Y021066D01*
X006933Y021066D02*
X006337Y021066D01*
X006435Y020967D02*
X006835Y020967D01*
X006736Y020869D02*
X006534Y020869D01*
X006579Y020770D02*
X006700Y020770D01*
X006700Y020573D02*
X006579Y020573D01*
X006579Y020475D02*
X006700Y020475D01*
X006784Y020376D02*
X006486Y020376D01*
X006388Y020278D02*
X006882Y020278D01*
X006880Y019982D02*
X006420Y019982D01*
X006348Y020081D02*
X015830Y020081D01*
X015830Y020179D02*
X006348Y020179D01*
X006519Y019884D02*
X006781Y019884D01*
X006721Y019785D02*
X006579Y019785D01*
X006579Y019687D02*
X006721Y019687D01*
X006721Y019588D02*
X006579Y019588D01*
X006579Y019490D02*
X006721Y019490D01*
X006799Y019391D02*
X006501Y019391D01*
X006403Y019293D02*
X006897Y019293D01*
X007403Y019293D02*
X007897Y019293D01*
X007799Y019391D02*
X007501Y019391D01*
X007579Y019490D02*
X007721Y019490D01*
X007721Y019588D02*
X007579Y019588D01*
X007579Y019687D02*
X007721Y019687D01*
X007721Y019785D02*
X007579Y019785D01*
X007519Y019884D02*
X007781Y019884D01*
X008519Y019884D02*
X008781Y019884D01*
X008721Y019785D02*
X008579Y019785D01*
X008579Y019687D02*
X008721Y019687D01*
X008721Y019588D02*
X008579Y019588D01*
X008579Y019490D02*
X008721Y019490D01*
X008799Y019391D02*
X008501Y019391D01*
X008403Y019293D02*
X008897Y019293D01*
X009516Y020376D02*
X009784Y020376D01*
X009700Y020475D02*
X009600Y020475D01*
X009600Y020573D02*
X009700Y020573D01*
X009700Y020770D02*
X009600Y020770D01*
X009564Y020869D02*
X009736Y020869D01*
X009835Y020967D02*
X009465Y020967D01*
X009367Y021066D02*
X009933Y021066D01*
X010100Y021066D02*
X010200Y021066D01*
X010200Y020967D02*
X010100Y020967D01*
X010100Y020869D02*
X010200Y020869D01*
X010367Y021066D02*
X010933Y021066D01*
X010835Y020967D02*
X010465Y020967D01*
X010564Y020869D02*
X010736Y020869D01*
X010700Y020770D02*
X010600Y020770D01*
X010600Y020573D02*
X010700Y020573D01*
X010700Y020596D02*
X010700Y020460D01*
X010964Y020196D01*
X011100Y020196D01*
X011100Y020596D01*
X010700Y020596D01*
X010700Y020475D02*
X010600Y020475D01*
X010516Y020376D02*
X010784Y020376D01*
X010882Y020278D02*
X010418Y020278D01*
X010200Y020278D02*
X010100Y020278D01*
X010100Y020376D02*
X010200Y020376D01*
X010200Y020475D02*
X010100Y020475D01*
X010100Y020573D02*
X010200Y020573D01*
X010420Y019982D02*
X010880Y019982D01*
X010972Y020075D02*
X010721Y019824D01*
X010721Y019468D01*
X010972Y019217D01*
X011328Y019217D01*
X011579Y019468D01*
X011579Y019824D01*
X011328Y020075D01*
X010972Y020075D01*
X011100Y020278D02*
X011200Y020278D01*
X011200Y020376D02*
X011100Y020376D01*
X011100Y020475D02*
X011200Y020475D01*
X011200Y020573D02*
X011100Y020573D01*
X011100Y020869D02*
X011200Y020869D01*
X011200Y020967D02*
X011100Y020967D01*
X011100Y021066D02*
X011200Y021066D01*
X011367Y021066D02*
X011933Y021066D01*
X011835Y020967D02*
X011465Y020967D01*
X011564Y020869D02*
X011736Y020869D01*
X011700Y020770D02*
X011600Y020770D01*
X011600Y020573D02*
X011700Y020573D01*
X011700Y020596D02*
X011700Y020460D01*
X011964Y020196D01*
X012100Y020196D01*
X012100Y020596D01*
X011700Y020596D01*
X011700Y020475D02*
X011600Y020475D01*
X011516Y020376D02*
X011784Y020376D01*
X011882Y020278D02*
X011418Y020278D01*
X011420Y019982D02*
X011880Y019982D01*
X011972Y020075D02*
X011721Y019824D01*
X011721Y019468D01*
X011972Y019217D01*
X012328Y019217D01*
X012579Y019468D01*
X012579Y019824D01*
X012328Y020075D01*
X011972Y020075D01*
X012100Y020278D02*
X012200Y020278D01*
X012200Y020376D02*
X012100Y020376D01*
X012100Y020475D02*
X012200Y020475D01*
X012200Y020573D02*
X012100Y020573D01*
X012100Y020869D02*
X012200Y020869D01*
X012200Y020967D02*
X012100Y020967D01*
X012100Y021066D02*
X012200Y021066D01*
X012367Y021066D02*
X012933Y021066D01*
X012835Y020967D02*
X012465Y020967D01*
X012564Y020869D02*
X012736Y020869D01*
X012700Y020770D02*
X012600Y020770D01*
X012600Y020573D02*
X012700Y020573D01*
X012700Y020596D02*
X012700Y020460D01*
X012964Y020196D01*
X013100Y020196D01*
X013100Y020596D01*
X012700Y020596D01*
X012700Y020475D02*
X012600Y020475D01*
X012516Y020376D02*
X012784Y020376D01*
X012882Y020278D02*
X012418Y020278D01*
X012420Y019982D02*
X012880Y019982D01*
X012972Y020075D02*
X012721Y019824D01*
X012721Y019468D01*
X012971Y019218D01*
X012971Y018570D01*
X012967Y018570D01*
X012891Y018495D01*
X012891Y017797D01*
X012967Y017722D01*
X013585Y017722D01*
X013650Y017787D01*
X013715Y017722D01*
X014333Y017722D01*
X014409Y017797D01*
X014409Y018278D01*
X014412Y018281D01*
X015851Y018281D01*
X015851Y018151D01*
X015927Y018076D01*
X016643Y018076D01*
X016719Y018151D01*
X016719Y018281D01*
X018981Y018281D01*
X018981Y018151D01*
X019057Y018076D01*
X019773Y018076D01*
X019849Y018151D01*
X019849Y018769D01*
X019773Y018845D01*
X019057Y018845D01*
X018981Y018769D01*
X018981Y018639D01*
X016719Y018639D01*
X016719Y018769D01*
X016643Y018845D01*
X015927Y018845D01*
X015851Y018769D01*
X015851Y018639D01*
X014264Y018639D01*
X014195Y018570D01*
X013715Y018570D01*
X013650Y018505D01*
X013585Y018570D01*
X013329Y018570D01*
X013329Y019218D01*
X013579Y019468D01*
X013579Y019824D01*
X013328Y020075D01*
X012972Y020075D01*
X013100Y020278D02*
X013200Y020278D01*
X013200Y020376D02*
X013100Y020376D01*
X013100Y020475D02*
X013200Y020475D01*
X013200Y020573D02*
X013100Y020573D01*
X013100Y020869D02*
X013200Y020869D01*
X013200Y020967D02*
X013100Y020967D01*
X013100Y021066D02*
X013200Y021066D01*
X013367Y021066D02*
X013933Y021066D01*
X013835Y020967D02*
X013465Y020967D01*
X013564Y020869D02*
X013736Y020869D01*
X013700Y020770D02*
X013600Y020770D01*
X013600Y020573D02*
X013700Y020573D01*
X013700Y020596D02*
X013700Y020460D01*
X013964Y020196D01*
X014100Y020196D01*
X014100Y020596D01*
X013700Y020596D01*
X013700Y020475D02*
X013600Y020475D01*
X013516Y020376D02*
X013784Y020376D01*
X013882Y020278D02*
X013418Y020278D01*
X013420Y019982D02*
X013880Y019982D01*
X013972Y020075D02*
X013721Y019824D01*
X013721Y019468D01*
X013972Y019217D01*
X014328Y019217D01*
X014579Y019468D01*
X014579Y019824D01*
X014328Y020075D01*
X013972Y020075D01*
X014100Y020278D02*
X014200Y020278D01*
X014200Y020376D02*
X014100Y020376D01*
X014100Y020475D02*
X014200Y020475D01*
X014200Y020573D02*
X014100Y020573D01*
X014100Y020869D02*
X014200Y020869D01*
X014200Y020967D02*
X014100Y020967D01*
X014100Y021066D02*
X014200Y021066D01*
X014367Y021066D02*
X014933Y021066D01*
X014835Y020967D02*
X014465Y020967D01*
X014564Y020869D02*
X014736Y020869D01*
X014700Y020770D02*
X014600Y020770D01*
X014600Y020573D02*
X014700Y020573D01*
X014700Y020596D02*
X014700Y020460D01*
X014964Y020196D01*
X015100Y020196D01*
X015100Y020596D01*
X014700Y020596D01*
X014700Y020475D02*
X014600Y020475D01*
X014516Y020376D02*
X014784Y020376D01*
X014882Y020278D02*
X014418Y020278D01*
X014420Y019982D02*
X014880Y019982D01*
X014972Y020075D02*
X014721Y019824D01*
X014721Y019468D01*
X014972Y019217D01*
X015328Y019217D01*
X015579Y019468D01*
X015579Y019824D01*
X015328Y020075D01*
X014972Y020075D01*
X015100Y020278D02*
X015200Y020278D01*
X015200Y020376D02*
X015100Y020376D01*
X015100Y020475D02*
X015200Y020475D01*
X015200Y020573D02*
X015100Y020573D01*
X015100Y020869D02*
X015200Y020869D01*
X015200Y020967D02*
X015100Y020967D01*
X015100Y021066D02*
X015200Y021066D01*
X015600Y020573D02*
X015856Y020573D01*
X015860Y020580D02*
X015840Y020546D01*
X015830Y020508D01*
X015830Y020282D01*
X016235Y020282D01*
X016235Y020638D01*
X015960Y020638D01*
X015922Y020628D01*
X015888Y020608D01*
X015860Y020580D01*
X015830Y020475D02*
X015600Y020475D01*
X015516Y020376D02*
X015830Y020376D01*
X015830Y020182D02*
X015830Y019956D01*
X015840Y019918D01*
X015860Y019884D01*
X015888Y019856D01*
X015922Y019836D01*
X015960Y019826D01*
X016235Y019826D01*
X016235Y020182D01*
X015830Y020182D01*
X015830Y019982D02*
X015420Y019982D01*
X015519Y019884D02*
X015860Y019884D01*
X015579Y019785D02*
X020000Y019785D01*
X020000Y019687D02*
X015579Y019687D01*
X015579Y019588D02*
X020000Y019588D01*
X020000Y019490D02*
X015579Y019490D01*
X015501Y019391D02*
X020000Y019391D01*
X020000Y019293D02*
X015403Y019293D01*
X015882Y018800D02*
X013329Y018800D01*
X013329Y018702D02*
X015851Y018702D01*
X016285Y018460D02*
X019415Y018460D01*
X019808Y018111D02*
X020000Y018111D01*
X020000Y018209D02*
X019849Y018209D01*
X019849Y018308D02*
X020000Y018308D01*
X020000Y018406D02*
X019849Y018406D01*
X019849Y018505D02*
X020000Y018505D01*
X020000Y018603D02*
X019849Y018603D01*
X019849Y018702D02*
X020000Y018702D01*
X020000Y018800D02*
X019818Y018800D01*
X020000Y018899D02*
X013329Y018899D01*
X013329Y018997D02*
X020000Y018997D01*
X020000Y019096D02*
X013329Y019096D01*
X013329Y019194D02*
X020000Y019194D01*
X019778Y019836D02*
X019740Y019826D01*
X019465Y019826D01*
X019465Y020182D01*
X019465Y020282D01*
X019365Y020282D01*
X019365Y020638D01*
X019090Y020638D01*
X019052Y020628D01*
X019018Y020608D01*
X018990Y020580D01*
X018970Y020546D01*
X018960Y020508D01*
X018960Y020282D01*
X019365Y020282D01*
X019365Y020182D01*
X018960Y020182D01*
X018960Y019956D01*
X018970Y019918D01*
X018990Y019884D01*
X019018Y019856D01*
X019052Y019836D01*
X019090Y019826D01*
X019365Y019826D01*
X019365Y020182D01*
X019465Y020182D01*
X019870Y020182D01*
X019870Y019956D01*
X019860Y019918D01*
X019840Y019884D01*
X019812Y019856D01*
X019778Y019836D01*
X019840Y019884D02*
X020000Y019884D01*
X020000Y019982D02*
X019870Y019982D01*
X019870Y020081D02*
X020000Y020081D01*
X020000Y020179D02*
X019870Y020179D01*
X019870Y020282D02*
X019870Y020508D01*
X019860Y020546D01*
X019840Y020580D01*
X019812Y020608D01*
X019778Y020628D01*
X019740Y020638D01*
X019465Y020638D01*
X019465Y020282D01*
X019870Y020282D01*
X019870Y020376D02*
X020000Y020376D01*
X020000Y020278D02*
X019465Y020278D01*
X019465Y020376D02*
X019365Y020376D01*
X019365Y020278D02*
X016335Y020278D01*
X016335Y020282D02*
X016740Y020282D01*
X016740Y020508D01*
X016730Y020546D01*
X016710Y020580D01*
X016682Y020608D01*
X016648Y020628D01*
X016610Y020638D01*
X016335Y020638D01*
X016335Y020282D01*
X016235Y020282D01*
X016235Y020182D01*
X016335Y020182D01*
X016335Y020282D01*
X016335Y020376D02*
X016235Y020376D01*
X016235Y020278D02*
X015418Y020278D01*
X014781Y019884D02*
X014519Y019884D01*
X014579Y019785D02*
X014721Y019785D01*
X014721Y019687D02*
X014579Y019687D01*
X014579Y019588D02*
X014721Y019588D01*
X014721Y019490D02*
X014579Y019490D01*
X014501Y019391D02*
X014799Y019391D01*
X014897Y019293D02*
X014403Y019293D01*
X013897Y019293D02*
X013403Y019293D01*
X013501Y019391D02*
X013799Y019391D01*
X013721Y019490D02*
X013579Y019490D01*
X013579Y019588D02*
X013721Y019588D01*
X013721Y019687D02*
X013579Y019687D01*
X013579Y019785D02*
X013721Y019785D01*
X013781Y019884D02*
X013519Y019884D01*
X013150Y019646D02*
X013150Y018272D01*
X013276Y018146D01*
X012891Y018111D02*
X011440Y018111D01*
X011440Y018209D02*
X012891Y018209D01*
X012891Y018308D02*
X011440Y018308D01*
X011440Y018406D02*
X012891Y018406D01*
X012901Y018505D02*
X011440Y018505D01*
X011440Y018603D02*
X012971Y018603D01*
X012971Y018702D02*
X011426Y018702D01*
X011373Y018800D02*
X012971Y018800D01*
X012971Y018899D02*
X011234Y018899D01*
X011403Y019293D02*
X011897Y019293D01*
X011799Y019391D02*
X011501Y019391D01*
X011579Y019490D02*
X011721Y019490D01*
X011721Y019588D02*
X011579Y019588D01*
X011579Y019687D02*
X011721Y019687D01*
X011721Y019785D02*
X011579Y019785D01*
X011519Y019884D02*
X011781Y019884D01*
X012519Y019884D02*
X012781Y019884D01*
X012721Y019785D02*
X012579Y019785D01*
X012579Y019687D02*
X012721Y019687D01*
X012721Y019588D02*
X012579Y019588D01*
X012579Y019490D02*
X012721Y019490D01*
X012799Y019391D02*
X012501Y019391D01*
X012403Y019293D02*
X012897Y019293D01*
X012971Y019194D02*
X006329Y019194D01*
X006329Y019096D02*
X012971Y019096D01*
X012971Y018997D02*
X006352Y018997D01*
X007807Y016732D02*
X009860Y016732D01*
X009860Y016633D02*
X007906Y016633D01*
X008004Y016535D02*
X009860Y016535D01*
X009860Y016436D02*
X008103Y016436D01*
X008201Y016338D02*
X009864Y016338D01*
X009895Y016239D02*
X008300Y016239D01*
X008398Y016141D02*
X009979Y016141D01*
X009812Y015845D02*
X008694Y015845D01*
X008792Y015747D02*
X009771Y015747D01*
X009761Y015648D02*
X008891Y015648D01*
X008989Y015550D02*
X009769Y015550D01*
X009702Y015451D02*
X009088Y015451D01*
X009186Y015353D02*
X009604Y015353D01*
X009505Y015254D02*
X009285Y015254D01*
X009383Y015156D02*
X009471Y015156D01*
X010177Y013678D02*
X010704Y013678D01*
X010646Y013580D02*
X010207Y013580D01*
X010205Y013481D02*
X010646Y013481D01*
X010646Y013383D02*
X010164Y013383D01*
X010265Y013284D02*
X010646Y013284D01*
X010683Y013186D02*
X010363Y013186D01*
X010462Y013087D02*
X010781Y013087D01*
X010880Y012989D02*
X010560Y012989D01*
X010659Y012890D02*
X010978Y012890D01*
X011077Y012792D02*
X010757Y012792D01*
X010856Y012693D02*
X010996Y012693D01*
X010996Y012595D02*
X010954Y012595D01*
X011350Y012796D02*
X011650Y013096D01*
X011875Y013096D01*
X012300Y012671D01*
X012300Y012546D01*
X012589Y012257D01*
X012595Y012257D01*
X012756Y012096D01*
X013075Y012096D01*
X014025Y011146D01*
X017150Y011146D01*
X017432Y010822D02*
X017838Y010822D01*
X017740Y010920D02*
X017530Y010920D01*
X017579Y011019D02*
X017700Y011019D01*
X017700Y010960D02*
X017964Y010696D01*
X018100Y010696D01*
X018100Y011096D01*
X018200Y011096D01*
X018200Y010696D01*
X018336Y010696D01*
X018600Y010960D01*
X018600Y011096D01*
X018200Y011096D01*
X018200Y011196D01*
X018600Y011196D01*
X018600Y011332D01*
X018336Y011596D01*
X018200Y011596D01*
X018200Y011196D01*
X018100Y011196D01*
X018100Y011096D01*
X017700Y011096D01*
X017700Y010960D01*
X017579Y011117D02*
X018100Y011117D01*
X018100Y011196D02*
X017700Y011196D01*
X017700Y011332D01*
X017964Y011596D01*
X018100Y011596D01*
X018100Y011196D01*
X018100Y011216D02*
X018200Y011216D01*
X018200Y011314D02*
X018100Y011314D01*
X018100Y011413D02*
X018200Y011413D01*
X018200Y011511D02*
X018100Y011511D01*
X017879Y011511D02*
X017768Y011511D01*
X017780Y011413D02*
X017490Y011413D01*
X017579Y011314D02*
X017700Y011314D01*
X017700Y011216D02*
X017579Y011216D01*
X017866Y011610D02*
X020000Y011610D01*
X020000Y011708D02*
X017965Y011708D01*
X017721Y012004D02*
X017579Y012004D01*
X017579Y012102D02*
X017721Y012102D01*
X017721Y012201D02*
X017579Y012201D01*
X017579Y012299D02*
X017721Y012299D01*
X017795Y012398D02*
X017505Y012398D01*
X017753Y012496D02*
X017894Y012496D01*
X017851Y012595D02*
X020000Y012595D01*
X020000Y012693D02*
X017950Y012693D01*
X017721Y012989D02*
X017579Y012989D01*
X017579Y013087D02*
X017721Y013087D01*
X017721Y013186D02*
X017579Y013186D01*
X017579Y013284D02*
X017721Y013284D01*
X017780Y013383D02*
X017520Y013383D01*
X017738Y013481D02*
X017879Y013481D01*
X017836Y013580D02*
X020000Y013580D01*
X020000Y013678D02*
X017935Y013678D01*
X017721Y013974D02*
X017600Y013974D01*
X017600Y014072D02*
X017721Y014072D01*
X017721Y014171D02*
X017200Y014171D01*
X017100Y014171D02*
X013528Y014171D01*
X013430Y014269D02*
X016700Y014269D01*
X016700Y014332D02*
X016700Y014196D01*
X017100Y014196D01*
X017100Y014096D01*
X016700Y014096D01*
X016700Y013960D01*
X016835Y013825D01*
X013874Y013825D01*
X013429Y014270D01*
X013324Y014375D01*
X012550Y014375D01*
X012150Y013975D01*
X012135Y013990D01*
X012120Y014005D01*
X013083Y014967D01*
X016076Y014967D01*
X016576Y014467D01*
X016835Y014467D01*
X016700Y014332D01*
X016735Y014368D02*
X013331Y014368D01*
X013250Y014196D02*
X012624Y014196D01*
X012029Y013601D01*
X011912Y013758D02*
X012825Y014671D01*
X013500Y014671D01*
X013074Y014959D02*
X016085Y014959D01*
X016183Y014860D02*
X012975Y014860D01*
X012877Y014762D02*
X016282Y014762D01*
X016380Y014663D02*
X012778Y014663D01*
X012680Y014565D02*
X016479Y014565D01*
X016650Y014646D02*
X016150Y015146D01*
X013009Y015146D01*
X011746Y013883D01*
X011621Y013767D01*
X011300Y013421D01*
X011575Y013284D02*
X011881Y013284D01*
X011877Y013288D02*
X011890Y013275D01*
X011576Y013275D01*
X011568Y013267D01*
X011607Y013360D01*
X011607Y013482D01*
X011605Y013487D01*
X011625Y013509D01*
X011640Y013495D01*
X011887Y013742D01*
X011887Y013742D01*
X011640Y013495D01*
X011696Y013438D01*
X011731Y013418D01*
X011752Y013413D01*
X011877Y013288D01*
X011782Y013383D02*
X011607Y013383D01*
X011607Y013481D02*
X011653Y013481D01*
X011725Y013580D02*
X011725Y013580D01*
X011823Y013678D02*
X011823Y013678D01*
X011887Y013742D02*
X011887Y013758D01*
X011912Y013758D01*
X011922Y013777D02*
X011922Y013777D01*
X011887Y013742D02*
X012135Y013990D01*
X011887Y013742D01*
X011887Y013742D01*
X012020Y013875D02*
X012020Y013875D01*
X012119Y013974D02*
X012119Y013974D01*
X012187Y014072D02*
X012248Y014072D01*
X012286Y014171D02*
X012346Y014171D01*
X012384Y014269D02*
X012445Y014269D01*
X012483Y014368D02*
X012543Y014368D01*
X012581Y014466D02*
X016834Y014466D01*
X016650Y014646D02*
X017650Y014646D01*
X018150Y015146D01*
X018451Y015451D02*
X020000Y015451D01*
X020000Y015353D02*
X018550Y015353D01*
X018579Y015254D02*
X020000Y015254D01*
X020000Y015156D02*
X018579Y015156D01*
X018579Y015057D02*
X020000Y015057D01*
X020000Y014959D02*
X018569Y014959D01*
X018470Y014860D02*
X020000Y014860D01*
X020000Y014762D02*
X018372Y014762D01*
X018338Y014565D02*
X020000Y014565D01*
X020000Y014663D02*
X017920Y014663D01*
X017962Y014565D02*
X017821Y014565D01*
X017864Y014466D02*
X017466Y014466D01*
X017565Y014368D02*
X017765Y014368D01*
X017721Y014269D02*
X017600Y014269D01*
X017626Y013875D02*
X017515Y013875D01*
X017650Y013646D02*
X013800Y013646D01*
X013250Y014196D01*
X013627Y014072D02*
X016700Y014072D01*
X016700Y013974D02*
X013725Y013974D01*
X013824Y013875D02*
X016785Y013875D01*
X017150Y013146D02*
X013925Y013146D01*
X013200Y013871D01*
X012582Y013871D01*
X012170Y013459D01*
X012312Y013318D02*
X012640Y013646D01*
X013050Y013646D01*
X014050Y012646D01*
X017650Y012646D01*
X018150Y013146D01*
X018500Y012890D02*
X020000Y012890D01*
X020000Y012792D02*
X018402Y012792D01*
X018579Y012989D02*
X020000Y012989D01*
X020000Y013087D02*
X018579Y013087D01*
X018579Y013186D02*
X020000Y013186D01*
X020000Y013284D02*
X018579Y013284D01*
X018520Y013383D02*
X020000Y013383D01*
X020000Y013481D02*
X018421Y013481D01*
X018387Y013777D02*
X020000Y013777D01*
X020000Y013875D02*
X018485Y013875D01*
X018579Y013974D02*
X020000Y013974D01*
X020000Y014072D02*
X018579Y014072D01*
X018579Y014171D02*
X020000Y014171D01*
X020000Y014269D02*
X018579Y014269D01*
X018535Y014368D02*
X020000Y014368D01*
X020000Y014466D02*
X018436Y014466D01*
X018150Y014146D02*
X017650Y013646D01*
X017641Y012890D02*
X017500Y012890D01*
X017150Y012146D02*
X014175Y012146D01*
X012900Y013421D01*
X012698Y013421D01*
X012453Y013176D01*
X012595Y013035D02*
X013983Y011646D01*
X017650Y011646D01*
X018150Y012146D01*
X018406Y012496D02*
X020000Y012496D01*
X020000Y012398D02*
X018505Y012398D01*
X018579Y012299D02*
X020000Y012299D01*
X020000Y012201D02*
X018579Y012201D01*
X018579Y012102D02*
X020000Y012102D01*
X020000Y012004D02*
X018579Y012004D01*
X018515Y011905D02*
X020000Y011905D01*
X020000Y011807D02*
X018417Y011807D01*
X018421Y011511D02*
X020000Y011511D01*
X020000Y011413D02*
X018520Y011413D01*
X018600Y011314D02*
X020000Y011314D01*
X020000Y011216D02*
X018600Y011216D01*
X018600Y011019D02*
X020000Y011019D01*
X020000Y011117D02*
X018200Y011117D01*
X018200Y011019D02*
X018100Y011019D01*
X018100Y010920D02*
X018200Y010920D01*
X018200Y010822D02*
X018100Y010822D01*
X018100Y010723D02*
X018200Y010723D01*
X018363Y010723D02*
X020000Y010723D01*
X020000Y010625D02*
X013349Y010625D01*
X013447Y010526D02*
X016924Y010526D01*
X016972Y010575D02*
X016721Y010324D01*
X016721Y009968D01*
X016972Y009717D01*
X017328Y009717D01*
X017579Y009968D01*
X017579Y010324D01*
X017328Y010575D01*
X016972Y010575D01*
X016967Y010723D02*
X013250Y010723D01*
X013152Y010822D02*
X016868Y010822D01*
X016770Y010920D02*
X013053Y010920D01*
X012955Y011019D02*
X013900Y011019D01*
X013801Y011117D02*
X012856Y011117D01*
X012758Y011216D02*
X013703Y011216D01*
X013604Y011314D02*
X012659Y011314D01*
X012561Y011413D02*
X013506Y011413D01*
X013407Y011511D02*
X012462Y011511D01*
X012412Y011610D02*
X013309Y011610D01*
X013210Y011708D02*
X012510Y011708D01*
X012635Y011807D02*
X013112Y011807D01*
X013013Y011905D02*
X012737Y011905D01*
X012701Y011868D02*
X012453Y012116D01*
X012455Y012116D01*
X012850Y011721D01*
X012701Y011868D02*
X012453Y012116D01*
X012453Y012116D01*
X012467Y012102D02*
X012467Y012102D01*
X012565Y012004D02*
X012565Y012004D01*
X012664Y011905D02*
X012664Y011905D01*
X012312Y011974D02*
X012075Y012211D01*
X012075Y012421D01*
X011825Y012671D01*
X011832Y012171D02*
X011725Y012171D01*
X011832Y012171D02*
X012170Y011833D01*
X012029Y011691D02*
X014574Y009146D01*
X017150Y009146D01*
X016840Y009443D02*
X014531Y009443D01*
X014629Y009344D02*
X016742Y009344D01*
X016939Y009541D02*
X014432Y009541D01*
X014334Y009640D02*
X020000Y009640D01*
X020000Y009738D02*
X018348Y009738D01*
X018328Y009717D02*
X018579Y009968D01*
X018579Y010324D01*
X018328Y010575D01*
X017972Y010575D01*
X017721Y010324D01*
X017721Y009968D01*
X017972Y009717D01*
X018328Y009717D01*
X018447Y009837D02*
X020000Y009837D01*
X020000Y009935D02*
X018545Y009935D01*
X018579Y010034D02*
X020000Y010034D01*
X020000Y010132D02*
X018579Y010132D01*
X018579Y010231D02*
X020000Y010231D01*
X020000Y010329D02*
X018573Y010329D01*
X018475Y010428D02*
X020000Y010428D01*
X020000Y010526D02*
X018376Y010526D01*
X018462Y010822D02*
X020000Y010822D01*
X020000Y010920D02*
X018560Y010920D01*
X017937Y010723D02*
X017333Y010723D01*
X017376Y010526D02*
X017924Y010526D01*
X017825Y010428D02*
X017475Y010428D01*
X017573Y010329D02*
X017727Y010329D01*
X017721Y010231D02*
X017579Y010231D01*
X017579Y010132D02*
X017721Y010132D01*
X017721Y010034D02*
X017579Y010034D01*
X017545Y009935D02*
X017755Y009935D01*
X017853Y009837D02*
X017447Y009837D01*
X017348Y009738D02*
X017952Y009738D01*
X017939Y009541D02*
X017361Y009541D01*
X017460Y009443D02*
X017840Y009443D01*
X017742Y009344D02*
X017558Y009344D01*
X017579Y009246D02*
X017721Y009246D01*
X017721Y009147D02*
X017579Y009147D01*
X017579Y009049D02*
X017721Y009049D01*
X017701Y008950D02*
X017560Y008950D01*
X017603Y008852D02*
X017462Y008852D01*
X017650Y008646D02*
X014791Y008646D01*
X011887Y011550D01*
X011746Y011409D02*
X015009Y008146D01*
X017150Y008146D01*
X017445Y008458D02*
X017855Y008458D01*
X017813Y008556D02*
X017954Y008556D01*
X017911Y008655D02*
X020000Y008655D01*
X020000Y008753D02*
X018363Y008753D01*
X018462Y008852D02*
X020000Y008852D01*
X020000Y008950D02*
X018560Y008950D01*
X018579Y009049D02*
X020000Y009049D01*
X020000Y009147D02*
X018579Y009147D01*
X018579Y009246D02*
X020000Y009246D01*
X020000Y009344D02*
X018558Y009344D01*
X018460Y009443D02*
X020000Y009443D01*
X020000Y009541D02*
X018361Y009541D01*
X018150Y009146D02*
X017650Y008646D01*
X017543Y008359D02*
X017757Y008359D01*
X017721Y008261D02*
X017579Y008261D01*
X017579Y008162D02*
X017721Y008162D01*
X017721Y008064D02*
X017579Y008064D01*
X017575Y007965D02*
X017716Y007965D01*
X017618Y007867D02*
X017477Y007867D01*
X017650Y007646D02*
X015226Y007646D01*
X011605Y011267D01*
X011463Y011126D02*
X015443Y007146D01*
X017150Y007146D01*
X017579Y007177D02*
X017721Y007177D01*
X017721Y007079D02*
X017579Y007079D01*
X017579Y006980D02*
X017721Y006980D01*
X017633Y006882D02*
X017492Y006882D01*
X017650Y006646D02*
X015660Y006646D01*
X011322Y010984D01*
X011180Y010843D02*
X015877Y006146D01*
X017150Y006146D01*
X017579Y006192D02*
X017721Y006192D01*
X017721Y006094D02*
X017579Y006094D01*
X017579Y005995D02*
X017721Y005995D01*
X017648Y005897D02*
X017507Y005897D01*
X017650Y005646D02*
X016094Y005646D01*
X011039Y010702D01*
X009978Y010984D02*
X006140Y007146D01*
X004150Y007146D01*
X003721Y007177D02*
X003579Y007177D01*
X003579Y007079D02*
X003721Y007079D01*
X003721Y006980D02*
X003579Y006980D01*
X003492Y006882D02*
X003808Y006882D01*
X003534Y006783D02*
X003393Y006783D01*
X003337Y006586D02*
X002329Y006586D01*
X002329Y006488D02*
X002885Y006488D01*
X002787Y006389D02*
X002329Y006389D01*
X002329Y006291D02*
X002721Y006291D01*
X002721Y006192D02*
X002329Y006192D01*
X002329Y006094D02*
X002721Y006094D01*
X002721Y005995D02*
X002329Y005995D01*
X002329Y005897D02*
X002793Y005897D01*
X002892Y005798D02*
X002329Y005798D01*
X002349Y005700D02*
X003344Y005700D01*
X003442Y005601D02*
X002448Y005601D01*
X002546Y005503D02*
X003541Y005503D01*
X003639Y005404D02*
X002645Y005404D01*
X002743Y005306D02*
X003738Y005306D01*
X003836Y005207D02*
X002842Y005207D01*
X003085Y004222D02*
X003215Y004222D01*
X004046Y005503D02*
X009859Y005503D01*
X009958Y005601D02*
X003948Y005601D01*
X003849Y005700D02*
X009871Y005700D01*
X009772Y005798D02*
X004408Y005798D01*
X004507Y005897D02*
X009742Y005897D01*
X009742Y005995D02*
X005807Y005995D01*
X005906Y006094D02*
X009742Y006094D01*
X009762Y006192D02*
X006004Y006192D01*
X006103Y006291D02*
X009860Y006291D01*
X009959Y006389D02*
X006201Y006389D01*
X006300Y006488D02*
X015000Y006488D01*
X014902Y006586D02*
X006398Y006586D01*
X006497Y006685D02*
X014803Y006685D01*
X014705Y006783D02*
X006595Y006783D01*
X006357Y007646D02*
X009837Y011126D01*
X009695Y011267D02*
X006574Y008146D01*
X004150Y008146D01*
X003650Y007646D02*
X006357Y007646D01*
X006717Y008825D02*
X004465Y008825D01*
X004600Y008960D01*
X004600Y009096D01*
X004200Y009096D01*
X004200Y009196D01*
X004600Y009196D01*
X004600Y009332D01*
X004465Y009467D01*
X007299Y009467D01*
X009150Y011318D01*
X009165Y011303D01*
X009413Y011550D01*
X009429Y011550D01*
X009413Y011550D02*
X009165Y011303D01*
X009180Y011288D01*
X006717Y008825D01*
X006744Y008852D02*
X004492Y008852D01*
X004590Y008950D02*
X006843Y008950D01*
X006941Y009049D02*
X004600Y009049D01*
X004600Y009246D02*
X007138Y009246D01*
X007237Y009344D02*
X004588Y009344D01*
X004490Y009443D02*
X007335Y009443D01*
X007373Y009541D02*
X007434Y009541D01*
X007471Y009640D02*
X007532Y009640D01*
X007570Y009738D02*
X007631Y009738D01*
X007668Y009837D02*
X007729Y009837D01*
X007767Y009935D02*
X007828Y009935D01*
X007865Y010034D02*
X007926Y010034D01*
X007964Y010132D02*
X008025Y010132D01*
X008062Y010231D02*
X008123Y010231D01*
X008161Y010329D02*
X008222Y010329D01*
X008259Y010428D02*
X008320Y010428D01*
X008358Y010526D02*
X008419Y010526D01*
X008456Y010625D02*
X008517Y010625D01*
X008555Y010723D02*
X008616Y010723D01*
X008653Y010822D02*
X008714Y010822D01*
X008752Y010920D02*
X008813Y010920D01*
X008850Y011019D02*
X008911Y011019D01*
X008949Y011117D02*
X009010Y011117D01*
X009047Y011216D02*
X009108Y011216D01*
X009146Y011314D02*
X009154Y011314D01*
X009177Y011314D02*
X009177Y011314D01*
X009275Y011413D02*
X009275Y011413D01*
X009374Y011511D02*
X009374Y011511D01*
X009413Y011550D02*
X009413Y011550D01*
X009472Y011610D02*
X009472Y011610D01*
X009571Y011708D02*
X009571Y011708D01*
X009271Y011691D02*
X009271Y011692D01*
X011463Y014166D02*
X013118Y015821D01*
X013500Y015821D01*
X016100Y015821D01*
X016275Y015646D01*
X017650Y015646D01*
X018150Y016146D01*
X018455Y015845D02*
X020000Y015845D01*
X020000Y015747D02*
X018357Y015747D01*
X018353Y015550D02*
X020000Y015550D01*
X020000Y015648D02*
X017905Y015648D01*
X017947Y015550D02*
X017806Y015550D01*
X017849Y015451D02*
X017451Y015451D01*
X017550Y015353D02*
X017750Y015353D01*
X017721Y015254D02*
X017579Y015254D01*
X017579Y015156D02*
X017721Y015156D01*
X017721Y015057D02*
X017579Y015057D01*
X017569Y014959D02*
X017710Y014959D01*
X017611Y014860D02*
X017470Y014860D01*
X017150Y015146D02*
X016600Y015146D01*
X016350Y015396D01*
X012976Y015396D01*
X013160Y016146D02*
X011322Y014308D01*
X011180Y014449D02*
X013377Y016646D01*
X017650Y016646D01*
X018150Y017146D01*
X018481Y017421D02*
X020000Y017421D01*
X020000Y017323D02*
X018579Y017323D01*
X018579Y017224D02*
X020000Y017224D01*
X020000Y017126D02*
X018579Y017126D01*
X018579Y017027D02*
X020000Y017027D01*
X020000Y016929D02*
X018539Y016929D01*
X018440Y016830D02*
X020000Y016830D01*
X020000Y016732D02*
X018342Y016732D01*
X018368Y016535D02*
X020000Y016535D01*
X020000Y016633D02*
X017890Y016633D01*
X017932Y016535D02*
X017791Y016535D01*
X017834Y016436D02*
X017466Y016436D01*
X017565Y016338D02*
X017735Y016338D01*
X017721Y016239D02*
X017579Y016239D01*
X017579Y016141D02*
X017721Y016141D01*
X017721Y016042D02*
X017579Y016042D01*
X017554Y015944D02*
X017695Y015944D01*
X017596Y015845D02*
X017455Y015845D01*
X017150Y016146D02*
X013160Y016146D01*
X013594Y017146D02*
X017150Y017146D01*
X016917Y017520D02*
X010700Y017520D01*
X010700Y017618D02*
X010600Y017618D01*
X010600Y017717D02*
X010700Y017717D01*
X010700Y017815D02*
X010600Y017815D01*
X010600Y017914D02*
X010700Y017914D01*
X010700Y018012D02*
X010600Y018012D01*
X010600Y018111D02*
X010700Y018111D01*
X010700Y018209D02*
X010600Y018209D01*
X010600Y018308D02*
X010700Y018308D01*
X010700Y018406D02*
X010600Y018406D01*
X010600Y018505D02*
X010700Y018505D01*
X010700Y018603D02*
X010600Y018603D01*
X010600Y018702D02*
X010700Y018702D01*
X010700Y018800D02*
X010600Y018800D01*
X010600Y018899D02*
X010700Y018899D01*
X010897Y019293D02*
X010403Y019293D01*
X010501Y019391D02*
X010799Y019391D01*
X010721Y019490D02*
X010579Y019490D01*
X010579Y019588D02*
X010721Y019588D01*
X010721Y019687D02*
X010579Y019687D01*
X010579Y019785D02*
X010721Y019785D01*
X010781Y019884D02*
X010519Y019884D01*
X011440Y018012D02*
X012891Y018012D01*
X012891Y017914D02*
X011440Y017914D01*
X011440Y017815D02*
X012891Y017815D01*
X013329Y018603D02*
X014228Y018603D01*
X014338Y018460D02*
X016285Y018460D01*
X016719Y018702D02*
X018981Y018702D01*
X019012Y018800D02*
X016688Y018800D01*
X016719Y018209D02*
X018981Y018209D01*
X019022Y018111D02*
X016678Y018111D01*
X016819Y017421D02*
X011440Y017421D01*
X011440Y017618D02*
X020000Y017618D01*
X020000Y017520D02*
X018383Y017520D01*
X017917Y017520D02*
X017383Y017520D01*
X017481Y017421D02*
X017819Y017421D01*
X017721Y017323D02*
X017579Y017323D01*
X017579Y017224D02*
X017721Y017224D01*
X017721Y017126D02*
X017579Y017126D01*
X017579Y017027D02*
X017721Y017027D01*
X017680Y016929D02*
X017539Y016929D01*
X017581Y016830D02*
X017440Y016830D01*
X018466Y016436D02*
X020000Y016436D01*
X020000Y016338D02*
X018565Y016338D01*
X018579Y016239D02*
X020000Y016239D01*
X020000Y016141D02*
X018579Y016141D01*
X018579Y016042D02*
X020000Y016042D01*
X020000Y015944D02*
X018554Y015944D01*
X020000Y017717D02*
X011440Y017717D01*
X014024Y018146D02*
X014338Y018460D01*
X014409Y018209D02*
X015851Y018209D01*
X015892Y018111D02*
X014409Y018111D01*
X014409Y018012D02*
X020000Y018012D01*
X020000Y017914D02*
X014409Y017914D01*
X014409Y017815D02*
X020000Y017815D01*
X019465Y019884D02*
X019365Y019884D01*
X019365Y019982D02*
X019465Y019982D01*
X019465Y020081D02*
X019365Y020081D01*
X019365Y020179D02*
X019465Y020179D01*
X019465Y020475D02*
X019365Y020475D01*
X019365Y020573D02*
X019465Y020573D01*
X019844Y020573D02*
X020000Y020573D01*
X020000Y020475D02*
X019870Y020475D01*
X020000Y021263D02*
X001300Y021263D01*
X001300Y021361D02*
X020000Y021361D01*
X020000Y021460D02*
X001300Y021460D01*
X001300Y021496D02*
X020000Y021496D01*
X020000Y002796D01*
X001300Y002796D01*
X001300Y021496D01*
X003699Y009443D02*
X003810Y009443D01*
X003712Y009344D02*
X003601Y009344D01*
X003579Y009246D02*
X003700Y009246D01*
X003579Y009147D02*
X004100Y009147D01*
X004200Y009147D02*
X007040Y009147D01*
X003808Y008852D02*
X003462Y008852D01*
X003504Y008753D02*
X003363Y008753D01*
X003406Y008655D02*
X002411Y008655D01*
X002329Y008556D02*
X002954Y008556D01*
X002855Y008458D02*
X002329Y008458D01*
X002329Y008359D02*
X002757Y008359D01*
X002721Y008261D02*
X002329Y008261D01*
X002329Y008162D02*
X002721Y008162D01*
X002721Y008064D02*
X002329Y008064D01*
X002329Y007965D02*
X002725Y007965D01*
X002823Y007867D02*
X002329Y007867D01*
X003150Y008146D02*
X003650Y008646D01*
X003710Y008950D02*
X003560Y008950D01*
X003579Y009049D02*
X003700Y009049D01*
X002937Y008753D02*
X002510Y008753D01*
X002608Y008852D02*
X002838Y008852D01*
X002740Y008950D02*
X002707Y008950D01*
X003650Y007646D02*
X003150Y007146D01*
X003579Y007276D02*
X003721Y007276D01*
X003772Y007374D02*
X003631Y007374D01*
X005854Y005010D02*
X009773Y005010D01*
X010346Y004813D02*
X010924Y004813D01*
X010826Y004912D02*
X010444Y004912D01*
X010543Y005010D02*
X010727Y005010D01*
X011099Y005010D02*
X011186Y005010D01*
X011186Y004912D02*
X011099Y004912D01*
X011099Y004813D02*
X011186Y004813D01*
X011186Y005109D02*
X011099Y005109D01*
X011579Y005306D02*
X020000Y005306D01*
X020000Y005404D02*
X011569Y005404D01*
X011471Y005503D02*
X015985Y005503D01*
X015887Y005601D02*
X011372Y005601D01*
X011429Y005700D02*
X015788Y005700D01*
X015690Y005798D02*
X011528Y005798D01*
X011558Y005897D02*
X015591Y005897D01*
X015493Y005995D02*
X011558Y005995D01*
X011558Y006094D02*
X015394Y006094D01*
X015296Y006192D02*
X011538Y006192D01*
X011440Y006291D02*
X015197Y006291D01*
X015099Y006389D02*
X011341Y006389D01*
X012385Y004616D02*
X008915Y004616D01*
X008972Y004518D02*
X012328Y004518D01*
X012287Y004419D02*
X009013Y004419D01*
X009054Y004321D02*
X012246Y004321D01*
X012239Y004222D02*
X009061Y004222D01*
X009061Y004124D02*
X012239Y004124D01*
X012239Y004025D02*
X009061Y004025D01*
X009035Y003927D02*
X012265Y003927D01*
X012306Y003828D02*
X008994Y003828D01*
X008953Y003730D02*
X012347Y003730D01*
X012430Y003631D02*
X008870Y003631D01*
X008772Y003533D02*
X012528Y003533D01*
X012697Y003434D02*
X008603Y003434D01*
X007957Y003434D02*
X001300Y003434D01*
X001300Y003336D02*
X020000Y003336D01*
X020000Y003434D02*
X013343Y003434D01*
X013512Y003533D02*
X020000Y003533D01*
X020000Y003631D02*
X013610Y003631D01*
X013693Y003730D02*
X020000Y003730D01*
X020000Y003828D02*
X013734Y003828D01*
X013775Y003927D02*
X020000Y003927D01*
X020000Y004025D02*
X013802Y004025D01*
X013802Y004124D02*
X020000Y004124D01*
X020000Y004222D02*
X013802Y004222D01*
X013794Y004321D02*
X020000Y004321D01*
X020000Y004419D02*
X013753Y004419D01*
X013712Y004518D02*
X020000Y004518D01*
X020000Y004616D02*
X013655Y004616D01*
X013557Y004715D02*
X020000Y004715D01*
X020000Y004813D02*
X013452Y004813D01*
X017650Y005646D02*
X018150Y006146D01*
X018408Y005798D02*
X020000Y005798D01*
X020000Y005700D02*
X017956Y005700D01*
X017858Y005601D02*
X020000Y005601D01*
X020000Y005503D02*
X017759Y005503D01*
X017721Y006291D02*
X017579Y006291D01*
X017513Y006389D02*
X017787Y006389D01*
X017744Y006488D02*
X017885Y006488D01*
X017843Y006586D02*
X020000Y006586D01*
X020000Y006488D02*
X018415Y006488D01*
X018513Y006389D02*
X020000Y006389D01*
X020000Y006291D02*
X018579Y006291D01*
X018579Y006192D02*
X020000Y006192D01*
X020000Y006094D02*
X018579Y006094D01*
X018579Y005995D02*
X020000Y005995D01*
X020000Y005897D02*
X018507Y005897D01*
X018393Y006783D02*
X020000Y006783D01*
X020000Y006685D02*
X017941Y006685D01*
X017650Y006646D02*
X018150Y007146D01*
X018430Y007473D02*
X020000Y007473D01*
X020000Y007571D02*
X018331Y007571D01*
X018378Y007768D02*
X020000Y007768D01*
X020000Y007670D02*
X017926Y007670D01*
X017969Y007571D02*
X017828Y007571D01*
X017870Y007473D02*
X017729Y007473D01*
X017772Y007374D02*
X017528Y007374D01*
X017579Y007276D02*
X017721Y007276D01*
X017650Y007646D02*
X018150Y008146D01*
X018477Y007867D02*
X020000Y007867D01*
X020000Y007965D02*
X018575Y007965D01*
X018579Y008064D02*
X020000Y008064D01*
X020000Y008162D02*
X018579Y008162D01*
X018579Y008261D02*
X020000Y008261D01*
X020000Y008359D02*
X018543Y008359D01*
X018445Y008458D02*
X020000Y008458D01*
X020000Y008556D02*
X018346Y008556D01*
X018528Y007374D02*
X020000Y007374D01*
X020000Y007276D02*
X018579Y007276D01*
X018579Y007177D02*
X020000Y007177D01*
X020000Y007079D02*
X018579Y007079D01*
X018579Y006980D02*
X020000Y006980D01*
X020000Y006882D02*
X018492Y006882D01*
X016952Y009738D02*
X014235Y009738D01*
X014137Y009837D02*
X016853Y009837D01*
X016755Y009935D02*
X014038Y009935D01*
X013940Y010034D02*
X016721Y010034D01*
X016721Y010132D02*
X013841Y010132D01*
X013743Y010231D02*
X016721Y010231D01*
X016727Y010329D02*
X013644Y010329D01*
X013546Y010428D02*
X016825Y010428D01*
X017515Y011905D02*
X017656Y011905D01*
X016610Y019826D02*
X016335Y019826D01*
X016335Y020182D01*
X016740Y020182D01*
X016740Y019956D01*
X016730Y019918D01*
X016710Y019884D01*
X016682Y019856D01*
X016648Y019836D01*
X016610Y019826D01*
X016710Y019884D02*
X018990Y019884D01*
X018960Y019982D02*
X016740Y019982D01*
X016740Y020081D02*
X018960Y020081D01*
X018960Y020179D02*
X016740Y020179D01*
X016740Y020376D02*
X018960Y020376D01*
X018960Y020475D02*
X016740Y020475D01*
X016714Y020573D02*
X018986Y020573D01*
X016335Y020573D02*
X016235Y020573D01*
X016235Y020475D02*
X016335Y020475D01*
X016335Y020179D02*
X016235Y020179D01*
X016235Y020081D02*
X016335Y020081D01*
X016335Y019982D02*
X016235Y019982D01*
X016235Y019884D02*
X016335Y019884D01*
X007498Y004025D02*
X001300Y004025D01*
X001300Y003927D02*
X007525Y003927D01*
X007566Y003828D02*
X001300Y003828D01*
X001300Y003730D02*
X007607Y003730D01*
X007690Y003631D02*
X001300Y003631D01*
X001300Y003533D02*
X007788Y003533D01*
X001300Y003237D02*
X020000Y003237D01*
X020000Y003139D02*
X001300Y003139D01*
X001300Y003040D02*
X020000Y003040D01*
X020000Y002942D02*
X001300Y002942D01*
X001300Y002843D02*
X020000Y002843D01*
D22*
X014850Y010221D03*
X012850Y011721D03*
X011725Y012171D03*
X011825Y012671D03*
X011175Y012121D03*
X011075Y011571D03*
X009825Y012771D03*
X009525Y012346D03*
X009900Y013546D03*
X010675Y014871D03*
X009350Y015646D03*
X011300Y013421D03*
X013500Y014671D03*
X013500Y015821D03*
X012150Y016646D03*
X012350Y018721D03*
X015350Y017721D03*
X014875Y014371D03*
X011150Y009646D03*
X010750Y008521D03*
X009900Y009371D03*
X009675Y008646D03*
X012950Y007271D03*
X006400Y016146D03*
M02*
