%
M48
M72
T01C0.0236
T02C0.0320
T03C0.0374
T04C0.0400
T05C0.0906
%
T01
X9825Y12771
X12850Y11721
X10750Y8521
X11150Y9646
X9900Y9371
X9350Y15646
X10675Y14871
X14875Y14371
X15350Y17721
X12350Y18721
X14850Y10221
X12150Y16646
X13500Y14671
X6400Y16146
X11075Y11571
X11175Y12121
X9675Y8646
X12950Y7271
X9525Y12346
X9900Y13546
X13500Y15821
X11725Y12171
X11825Y12671
X11300Y13421
T02
X10150Y15646
X11150Y15646
T03
X11142Y6000
X10158Y6000
X10158Y5213
X11142Y5213
T04
X6150Y19646
X6150Y20646
X7150Y19646
X7150Y20646
X8150Y19646
X8150Y20646
X9150Y19646
X9150Y20646
X10150Y19646
X10150Y20646
X11150Y19646
X11150Y20646
X12150Y19646
X12150Y20646
X13150Y19646
X13150Y20646
X14150Y19646
X14150Y20646
X15150Y19646
X15150Y20646
X3150Y17146
X4150Y17146
X3150Y16146
X4150Y16146
X3150Y15146
X4150Y15146
X3150Y14146
X4150Y14146
X3150Y13146
X4150Y13146
X3150Y12146
X4150Y12146
X3150Y11146
X4150Y11146
X3150Y10146
X4150Y10146
X3150Y9146
X4150Y9146
X3150Y8146
X4150Y8146
X3150Y7146
X4150Y7146
X3150Y6146
X4150Y6146
X18150Y6146
X17150Y6146
X18150Y7146
X17150Y7146
X18150Y8146
X17150Y8146
X18150Y9146
X17150Y9146
X18150Y10146
X17150Y10146
X18150Y11146
X17150Y11146
X18150Y12146
X17150Y12146
X18150Y13146
X17150Y13146
X18150Y14146
X17150Y14146
X18150Y15146
X17150Y15146
X18150Y16146
X17150Y16146
X18150Y17146
X17150Y17146
T05
X8280Y4146
X13020Y4146
M30
